<?xml version="1.0" encoding="UTF-8" standalone="no"?>
<svg
   xmlns:dc="http://purl.org/dc/elements/1.1/"
   xmlns:cc="http://creativecommons.org/ns#"
   xmlns:rdf="http://www.w3.org/1999/02/22-rdf-syntax-ns#"
   xmlns:svg="http://www.w3.org/2000/svg"
   xmlns="http://www.w3.org/2000/svg"
   version="1.1"
   id="svg1570"
   width="411.69125"
   height="517.58844"
   viewBox="0 0 411.69125 517.58844">
  <metadata
     id="metadata1576">
    <rdf:RDF>
      <cc:Work
         rdf:about="">
        <dc:format>image/svg+xml</dc:format>
        <dc:type
           rdf:resource="http://purl.org/dc/dcmitype/StillImage" />
        <dc:title></dc:title>
      </cc:Work>
    </rdf:RDF>
  </metadata>
  <defs
     id="defs1574" />
  <g
     id="g1578"
     transform="translate(-307.7604,31.196988)">
    <path
       style="fill:#001147;fill-opacity:1"
       d="m 334.99614,486.30041 c -10.92655,0.86935 -20.18887,-4.52829 -24.65255,-14.36631 -5.2296,-11.52622 -7.21764,-6.29111 41.98935,-110.57212 l 51.99137,-107.41444 3.96438,5.55671 c 8.98706,12.5968 20.95077,21.25874 36.43939,26.38302 5.61866,1.85881 9.00205,3.5099 8.68972,4.2404 -2.51065,5.87199 -99.65728,184.90205 -101.67217,187.39992 -4.09535,5.07702 -10.14887,8.24765 -16.74949,8.77282 z m 140.2458,-74.2045 c -6.58631,-0.13419 -10.19394,-1.55053 -15.16468,-5.95331 -9.43844,-8.36004 -10.20253,-23.17217 -1.67638,-32.50041 1.49136,-1.63164 20.5224,-16.60379 42.29121,-33.27143 21.76881,-16.66764 40.2076,-30.98127 40.97514,-31.8081 1.17116,-1.26163 -6.50923,-4.26283 -47.7745,-18.66875 -27.04351,-9.44099 -52.14568,-18.61285 -55.78256,-20.38192 -9.24144,-4.49529 -14.8246,-10.73509 -18.77311,-20.98115 -4.64321,-12.04836 -3.99061,-18.30772 3.83276,-36.76302 12.93668,-30.51786 51.90263,-124.798064 51.73443,-125.174429 -0.0961,-0.215125 -8.10127,-4.212588 -17.78912,-8.883283 l -17.61432,-8.492147 -38.93231,17.37477 c -43.42262,19.378759 -42.94025,19.235359 -52.04742,15.476779 -17.18346,-7.09177 -18.90161,-31.12728 -2.91059,-40.717624 2.49112,-1.494002 23.89589,-11.218099 47.56611,-21.609067 42.11935,-18.48994 43.13339,-18.885301 47.57213,-18.547879 6.18374,0.470123 13.20906,6.979388 69.02567,32.933273 8.38767,3.900141 29.00006,-7.485439 33.82173,-0.908291 5.73778,7.826791 25.10893,15.825214 30.19298,19.393053 5.08404,3.56784 3.65157,17.666069 11.0829,21.966612 7.43133,4.300543 13.30804,9.393433 24.95442,20.330853 l 12.66344,11.08722 35.27831,-15.21824 35.27832,-15.218236 5.43682,0.606831 c 18.99985,2.120631 27.59844,23.756415 15.09998,37.994275 -2.68644,3.0603 -6.17888,4.77296 -46.76622,22.93372 l -43.86297,19.62648 -5.87554,-0.24714 c -3.71525,-0.15622 -7.30895,-1.15757 -9.77377,-2.7233 -2.14405,-1.36188 -11.96243,-10.09834 -21.81885,-19.41426 -9.85633,-9.31596 -18.42962,-17.13813 -19.05181,-17.3826 -0.97046,-0.38138 -53.56784,86.05271 -53.05864,87.19213 0.10008,0.22393 21.0086,13.14815 46.4634,28.72045 25.45481,15.57232 47.5873,29.7013 49.18335,31.39772 6.54673,6.95846 7.71474,19.42548 2.57761,27.51258 -2.05025,3.22753 -14.42143,13.15005 -63.0487,50.56922 -33.27385,25.60459 -62.13687,47.29796 -64.14008,48.20752 -2.00321,0.90959 -6.12933,1.60305 -9.16914,1.5411 z M 609.60435,63.256088 c -14.98253,3.320237 -30.28379,-0.229939 -41.57202,-9.645376 -28.24779,-23.56143 -20.85156,-68.596372 13.38228,-81.483243 13.87273,-5.222202 27.85359,-4.275157 40.19113,2.722462 8.47156,4.804892 14.15711,10.691939 18.76517,19.4298584 6.72882,12.7596384 7.63028,24.3905026 2.94432,37.9917106 -5.36334,15.56748 -18.45995,27.604906 -33.71088,30.984588 z"
       id="path2143" />
  </g>
</svg>
