<?xml version="1.0" encoding="UTF-8" standalone="no"?>
<svg
   xmlns:dc="http://purl.org/dc/elements/1.1/"
   xmlns:cc="http://creativecommons.org/ns#"
   xmlns:rdf="http://www.w3.org/1999/02/22-rdf-syntax-ns#"
   xmlns:svg="http://www.w3.org/2000/svg"
   xmlns="http://www.w3.org/2000/svg"
   xmlns:sodipodi="http://sodipodi.sourceforge.net/DTD/sodipodi-0.dtd"
   xmlns:inkscape="http://www.inkscape.org/namespaces/inkscape"
   width="138.65656mm"
   height="122.94081mm"
   viewBox="0 0 138.65656 122.94081"
   version="1.1"
   id="svg8"
   inkscape:version="1.0.2 (e86c870879, 2021-01-15)"
   sodipodi:docname="air.svg">
  <defs
     id="defs2" />
  <sodipodi:namedview
     id="base"
     pagecolor="#ffffff"
     bordercolor="#666666"
     borderopacity="1.0"
     inkscape:pageopacity="0.0"
     inkscape:pageshadow="2"
     inkscape:zoom="0.49497475"
     inkscape:cx="-124.6037"
     inkscape:cy="-216.52303"
     inkscape:document-units="mm"
     inkscape:current-layer="layer1"
     inkscape:document-rotation="0"
     showgrid="false"
     inkscape:window-width="1920"
     inkscape:window-height="1050"
     inkscape:window-x="0"
     inkscape:window-y="30"
     inkscape:window-maximized="1" />
  <metadata
     id="metadata5">
    <rdf:RDF>
      <cc:Work
         rdf:about="">
        <dc:format>image/svg+xml</dc:format>
        <dc:type
           rdf:resource="http://purl.org/dc/dcmitype/StillImage" />
        <dc:title></dc:title>
      </cc:Work>
    </rdf:RDF>
  </metadata>
  <g
     inkscape:label="Layer 1"
     inkscape:groupmode="layer"
     id="layer1"
     transform="translate(-31.818975,-80.75613)">
    <path
       style="fill:#ececec;fill-opacity:1;stroke:#001147;stroke-width:7.7;stroke-miterlimit:4;stroke-dasharray:none;stroke-opacity:1;paint-order:stroke fill markers"
       d="m 88.019803,199.14641 c -3.55075,-1.13457 -6.70978,-3.78504 -8.55744,-7.1798 -0.79582,-1.46218 -1.02003,-2.39195 -1.14334,-4.74133 -0.14301,-2.72474 -0.0779,-3.07577 0.9619,-5.18795 1.70914,-3.47176 4.58669,-5.44569 8.38281,-5.7504 2.15484,-0.17297 2.23917,-0.14688 3.45552,1.06947 1.01099,1.011 1.24677,1.51326 1.24677,2.65586 0,1.92 -1.44927,3.48531 -3.53589,3.81897 -1.89634,0.30324 -2.8141,1.19287 -2.8141,2.72784 0,2.71826 3.10828,5.16744 6.55805,5.16744 5.47294,0 8.713187,-4.67309 7.874047,-11.35598 -1.022647,-8.14444 -9.093167,-13.94086 -24.298967,-17.45204 -5.53698,-1.27854 -12.24166,-1.35661 -16.34152,-0.19027 -4.73029,1.34568 -9.4178,4.00872 -14.72473,8.36531 -3.26667,2.68169 -3.83734,2.9941 -5.46925,2.9941 -1.70185,0 -3.69208,-1.87027 -3.69208,-3.46954 0,-1.91238 0.61978,-2.79334 3.86592,-5.4951 6.25786,-5.20842 12.19637,-8.58197 17.88136,-10.15802 2.36664,-0.65611 3.69697,-0.76923 9.12078,-0.77559 7.23568,-0.008 10.4524,0.52708 18.09498,3.01271 15.529347,5.05068 23.367737,13.60893 23.352217,25.49683 -0.007,5.25893 -1.28543,8.75167 -4.4657,12.19924 -4.009967,4.34703 -10.209417,6.01906 -15.751337,4.24825 z m 39.976777,-42.49968 c -6.03346,-0.86989 -11.69787,-2.60972 -23.63611,-7.25986 -13.521057,-5.26667 -18.811437,-6.9059 -25.576387,-7.92484 -4.58233,-0.69019 -11.53374,-0.68057 -15.72464,0.0218 -6.21033,1.04077 -14.52381,4.27953 -20.04974,7.81097 -2.44069,1.55976 -3.74137,1.76092 -5.25726,0.8131 -2.74745,-1.71785 -2.64422,-4.78825 0.2321,-6.90403 2.41682,-1.77778 11.73893,-6.32781 15.42604,-7.5293 14.27914,-4.65302 27.69948,-3.58072 46.892937,3.74678 16.40417,6.26264 19.02022,7.19973 22.87132,8.19269 7.80477,2.01238 12.26152,2.13804 18.50199,0.52168 10.75275,-2.78509 16.98539,-10.00202 17.0062,-19.69186 0.007,-3.4656 -0.56875,-5.03109 -2.63321,-7.15431 -2.96376,-3.04812 -7.22034,-3.74583 -9.76901,-1.60127 -1.20403,1.01313 -2.05645,2.7264 -2.05645,4.13324 0,1.17278 1.47179,2.64113 2.64732,2.64113 3.40664,0 5.0839,4.07512 2.66956,6.48604 -0.99683,0.99541 -1.29681,1.09507 -3.19156,1.06021 -3.72723,-0.0686 -6.94792,-2.19376 -8.9116,-5.88036 -0.65277,-1.2255 -0.79383,-2.05224 -0.79592,-4.6645 -0.002,-2.7098 0.136,-3.47056 0.94294,-5.19221 3.14194,-6.70352 10.41558,-9.45283 17.96335,-6.78981 2.47996,0.87498 4.24535,2.07207 6.42253,4.35503 3.76489,3.94783 5.19962,8.727 4.50093,14.9929 -1.13043,10.13782 -6.31119,17.44663 -15.72116,22.1788 -6.63814,3.33824 -15.26585,4.71766 -22.75417,3.63801 z M 37.649453,127.06682 c -2.89641,-1.94976 -2.5999,-4.76505 0.74158,-7.04109 2.89053,-1.96889 10.67183,-5.73334 14.314,-6.92485 7.18189,-2.34952 14.49735,-3.20823 21.71458,-2.54895 5.41753,0.49489 9.44353,1.2576 17.94641,3.39987 9.537467,2.40294 12.642007,2.7049 18.072837,1.75784 4.58513,-0.79958 6.84053,-1.80062 9.13536,-4.05465 2.59974,-2.55354 3.54336,-4.97131 3.58327,-9.18125 0.0245,-2.579584 -0.10135,-3.251014 -0.90029,-4.804744 -1.62396,-3.158223 -4.62396,-5.052725 -8.01895,-5.063975 -3.22679,-0.01069 -5.64019,2.118653 -5.64313,4.978935 -0.002,1.78853 0.89016,2.712404 2.98958,3.096414 2.33312,0.42677 3.71188,1.8943 3.71188,3.95088 0,1.17894 -0.22661,1.66743 -1.24678,2.6876 -1.21697,1.21697 -1.29969,1.24252 -3.46117,1.06902 -6.59499,-0.52938 -10.779807,-6.02453 -9.7056,-12.744584 0.4527,-2.832063 1.64071,-5.013101 3.88002,-7.123255 3.4473,-3.248466 7.26457,-4.453297 11.85051,-3.740337 3.66977,0.570526 6.66335,2.09 9.34417,4.742879 3.78936,3.749869 5.4732,8.550473 5.07505,14.468907 -0.7243,10.7664 -7.48441,17.54141 -19.44037,19.48321 -6.56429,1.06612 -10.61678,0.65063 -22.379057,-2.29444 -10.2447,-2.5651 -12.756,-2.95185 -19.24871,-2.96438 -6.12944,-0.0118 -8.38856,0.30721 -13.71287,1.93653 -4.09736,1.25386 -7.97365,3.04347 -12.47136,5.75778 -1.78952,1.07996 -3.63136,1.96356 -4.09297,1.96356 -0.46161,0 -1.37871,-0.36312 -2.03799,-0.80692 z"
       id="path847" />
  </g>
</svg>
