<?xml version="1.0" encoding="UTF-8" standalone="no"?>
<svg
   xmlns:dc="http://purl.org/dc/elements/1.1/"
   xmlns:cc="http://creativecommons.org/ns#"
   xmlns:rdf="http://www.w3.org/1999/02/22-rdf-syntax-ns#"
   xmlns:svg="http://www.w3.org/2000/svg"
   xmlns="http://www.w3.org/2000/svg"
   version="1.1"
   id="svg943"
   width="884"
   height="1000"
   viewBox="0 0 884 1000">
  <metadata
     id="metadata949">
    <rdf:RDF>
      <cc:Work
         rdf:about="">
        <dc:format>image/svg+xml</dc:format>
        <dc:type
           rdf:resource="http://purl.org/dc/dcmitype/StillImage" />
        <dc:title></dc:title>
      </cc:Work>
    </rdf:RDF>
  </metadata>
  <defs
     id="defs947" />
  <g
     id="g951">
    <g
       id="g1538"
       transform="translate(569.11912,-24.173518)"
       style="fill:#e23b19;fill-opacity:1;stroke:#001147;stroke-opacity:1;stroke-width:56.3;stroke-miterlimit:4;stroke-dasharray:none">
      <path
         style="fill:#e23b19;fill-opacity:1;stroke-width:56.3;stroke:#001147;stroke-opacity:1;stroke-miterlimit:4;stroke-dasharray:none"
         d="m -222.15046,979.92457 c -13.64784,-1.1036 -35.11903,-4.79122 -49.53562,-8.5076 -35.31337,-9.10326 -63.98956,-25.23788 -88.19368,-49.6221 -34.07881,-34.33234 -54.38077,-83.00992 -61.88566,-148.38188 -1.72679,-15.04126 -2.40954,-82.42024 -0.85095,-83.97862 1.14772,-1.1476 11.73537,4.28754 22.78168,11.6949 l 8.89575,5.96524 -0.7909,-24.17409 c -1.99328,-60.92516 10.72664,-126.5538 35.92843,-185.37332 l 6.79789,-15.86589 4.95007,19.86589 c 2.72253,10.92624 6.24897,23.69939 7.83653,28.38476 7.2051,21.26452 18.57779,37.32156 30.83167,43.53107 6.64071,3.3651 14.0172,4.77261 13.71383,2.61673 -0.1032,-0.73333 -1.27578,-11.34999 -2.60572,-23.59256 -2.11843,-19.50063 -2.2058,-23.9604 -0.70502,-35.98589 4.37506,-35.05646 19.40119,-65.5861 56.64436,-115.08822 48.37698,-64.30072 68.25231,-105.42794 72.86523,-150.77706 1.67431,-16.45983 -0.0281,-40.38907 -3.93107,-55.25507 -1.73797,-6.6198 -1.99084,-9.3012 -0.87713,-9.3012 0.86064,0 9.34204,2.73981 18.84756,6.08847 81.783874,28.8113 137.195834,66.84854 171.359934,117.6291 34.55684,51.36431 44.44339,111.22226 31.97891,193.61576 -7.81069,51.6307 -7.80436,51.96123 1.156,60.33334 4.06849,3.8014 6.46735,5 10.00687,5 6.75386,0 10.37334,-1.93674 27.447706,-14.68691 16.35902,-12.216 27.4136,-19.97976 28.44856,-19.97976 0.34912,0 3.33743,6.45 6.64068,14.33333 16.43694,39.22734 24.91076,83.44634 24.91076,129.99183 0,12.28783 0.19759,22.34151 0.43908,22.34151 0.2415,0 5.17696,-2.7 10.96772,-6 5.79075,-3.3 10.93274,-6 11.42666,-6 1.66266,0 2.87377,33.82616 1.95726,54.66666 -3.44133,78.25263 -23.33846,136.04704 -60.0901,174.54134 -31.96591,33.48162 -69.072586,51.62349 -122.0339559,59.66376 -28.6496801,4.34942 -83.2261601,2.57254 -111.6216941,-3.63412 -3.5316,-0.77192 -7.99311,-0.73938 -12,0.0876 -21.11372,4.35745 -70.9076,7.53529 -91.71164,5.85302 z M 196.63691,629.41919 c -0.45928,-1.82992 -5.3832,-9.99584 -10.94204,-18.14646 -12.1446,-17.80698 -14.32474,-23.50726 -13.6117,-35.58966 0.43018,-7.28905 1.78302,-11.64088 7.33751,-23.60341 3.74555,-8.06667 8.42899,-19.76667 10.40763,-26 1.97864,-6.23333 3.88525,-12.23333 4.23692,-13.33333 0.36814,-1.15158 1.64701,0.82806 3.01468,4.66666 1.30641,3.66667 5.6899,14.46667 9.74109,24 11.19488,26.34406 12.16371,29.9847 11.32004,42.5381 -0.39903,5.93738 -1.96231,14.69524 -3.47397,19.4619 -2.83299,8.93318 -13.98739,29.33334 -16.03888,29.33334 -0.63592,0 -1.532,-1.49722 -1.99128,-3.32714 z M -352.20401,436.84835 c -8.14356,-11.14876 -16.40545,-26.55664 -21.50321,-40.10202 -7.16955,-21.47917 -5.88503,-39.24019 2.57096,-56.03212 8.34291,-18.92524 22.0029,-36.74256 26.59703,-56.22986 l 2.33254,-10.26198 8.33899,14.26198 c 23.17835,38.84514 17.0674,64.6335 5.03545,96.26198 -9.95082,26.00761 -13.66277,37.91301 -15.82874,50.76792 l -1.59648,9.47497 -5.94646,-8.14087 z M -134.15046,183.4735 c -9.53334,-7.09143 -19.94652,-15.85608 -23.14042,-19.47701 -11.80648,-13.38502 -17.51778,-30.56687 -14.8451,-44.65987 1.74924,-9.22372 7.46644,-21.389347 14.0625,-29.923631 15.57038,-20.145665 19.33987,-25.755978 20.12811,-29.95763 l 0.86937,-4.634152 7.23375,7.959861 c 14.76349,16.245428 21.46383,32.357531 19.85543,47.745802 -0.44963,4.30183 -2.59176,15.41105 -4.7603,24.68716 -5.12069,21.90426 -6.00721,33.79202 -3.6441,48.86563 1.03469,6.6 1.81214,12.06465 1.72768,12.14368 -0.0845,0.0791 -7.95359,-5.65841 -17.48692,-12.74984 z"
         id="path1540" />
    </g>
    <g
       id="g1552"
       transform="translate(6.3020025,9.9061416)">
      <path
         style="fill:#fdde15;stroke-width:1"
         d="M 419.62646,927.10547 C 376.91603,915.24259 349.4024,898.42008 324.28471,872.1124 290.95653,837.20528 277.58525,788.73013 287.29148,738.00025 c 3.94624,-20.62513 13.87941,-46.85953 17.25243,-45.56518 1.04214,0.3999 7.6634,4.66561 14.71386,9.47934 13.98298,9.54692 18.07012,10.57126 23.89575,5.98882 4.41957,-3.47643 4.48677,-6.99792 0.558,-29.23656 -4.1212,-23.32782 -4.09641,-55.93143 0.0543,-71.33334 3.75166,-13.92145 13.27838,-33.11949 21.64806,-43.6247 20.18998,-25.34148 56.46174,-47.40659 100.5862,-61.18936 11.33583,-3.54088 11.22204,-3.59615 9.13802,4.43797 -2.44035,9.40779 -2.28067,30.23947 0.31394,40.95757 4.42798,18.29152 17.30452,40.6627 38.80787,67.4232 21.26197,26.46011 27.42855,36.35214 32.97541,52.89708 2.7389,8.16943 3.41971,12.74404 3.37336,22.66667 -0.032,6.83736 -0.55373,14.99449 -1.15954,18.12696 -0.60583,3.13245 -0.72812,5.92613 -0.27179,6.20816 0.45635,0.28204 3.22815,-0.29987 6.15956,-1.29312 9.80251,-3.3214 17.53441,-15.245 23.30787,-35.94376 1.63637,-5.86667 3.26206,-11.56667 3.61264,-12.66667 1.47468,-4.62705 13.53364,24.97004 19.18757,47.09331 7.11693,27.8478 9.00681,61.66053 4.78408,85.59407 -3.74365,21.21821 -12.61837,44.05226 -23.28273,59.90488 -23.07918,34.30729 -61.14148,59.93926 -102.97691,68.89029 -19.51389,0.77214 -41.24683,5.01865 -60.34297,0.28959 z"
         id="path1546" />
      <path
         style="fill:#fd8700;stroke-width:1"
         d="m 406.66667,927.06213 c -19.50446,-1.53428 -49.102,-9.39789 -70.27771,-18.6717 -40.35831,-17.67475 -79.21855,-52.13588 -100.50399,-89.12662 -18.41772,-32.0071 -27.19957,-63.69976 -28.79853,-103.93048 -1.37557,-34.61014 3.74741,-68.90264 15.6824,-104.97546 6.20167,-18.74422 19.20488,-48.8286 20.53151,-47.50196 0.33952,0.33952 2.77337,8.08582 5.40854,17.21402 9.2894,32.1782 19.87474,47.89504 35.35326,52.49167 3.88192,1.1528 7.3119,1.84212 7.62222,1.53181 0.31031,-0.31032 -0.47792,-7.893 -1.75161,-16.85041 -1.89855,-13.35181 -2.06096,-18.35592 -0.90145,-27.77331 3.30048,-26.80596 16.07838,-50.76174 46.81034,-87.75918 35.85052,-43.15954 50.6759,-67.30292 59.59024,-97.04384 3.08136,-10.28036 3.61838,-14.57947 3.74734,-30 0.1132,-13.53615 -0.45987,-20.38331 -2.31086,-27.61046 -1.35377,-5.28574 -2.25297,-10.16204 -1.99822,-10.83621 0.25476,-0.67416 10.96318,2.20528 23.79652,6.39877 95.42562,31.18179 150.28405,79.8237 165.88305,147.08528 5.37593,23.18055 5.16851,56.89314 -0.54735,88.96262 -5.38826,30.23144 -5.94854,36.86609 -3.43698,40.69922 1.2354,1.88544 4.16357,4.5972 6.50705,6.02611 7.95216,4.84873 7.65765,4.96703 42.35489,-17.01233 6.0375,-3.82451 11.4027,-6.69074 11.92266,-6.36938 1.95246,1.2067 9.77618,19.15023 14.14746,32.44696 9.5691,29.1076 13.25592,54.73003 12.11694,84.20942 -1.54606,40.01554 -11.837,71.56448 -34.29586,105.14084 -12.9991,20.09622 -68.49994,95.0942 -150.21341,101.18454 68.02708,-25.85576 73.38106,-36.43112 88.33869,-52.49644 13.95317,-15.89839 21.9949,-30.36717 29.12436,-51.80824 10.20596,-30.6933 10.5283,-70.49521 0.87674,-108.26073 -5.65394,-22.12327 -17.7129,-51.72036 -19.18758,-47.09331 -0.35057,1.1 -1.97626,6.8 -3.61264,12.66667 -5.77345,20.69876 -13.50536,32.62236 -23.30786,35.94376 -2.93142,0.99325 -5.70322,1.57516 -6.15956,1.29312 -0.45634,-0.28203 -0.33404,-3.07571 0.27178,-6.20816 0.60582,-3.13247 1.12762,-11.2896 1.15955,-18.12696 0.0464,-9.92263 -0.63447,-14.49724 -3.37336,-22.66667 -5.54687,-16.54494 -11.71344,-26.43697 -32.97541,-52.89708 -21.50335,-26.7605 -34.3799,-49.13168 -38.80787,-67.4232 -2.59461,-10.7181 -2.75429,-31.54978 -0.31395,-40.95757 2.08403,-8.03412 2.19782,-7.97885 -9.13801,-4.43797 -44.12447,13.78277 -80.39623,35.84788 -100.5862,61.18936 -8.36968,10.50521 -17.8964,29.70325 -21.64807,43.6247 -4.15062,15.40191 -4.17541,48.00552 -0.0543,71.33334 3.92877,22.23864 3.86157,25.76013 -0.558,29.23656 -5.82563,4.58244 -9.91278,3.5581 -23.89575,-5.98882 -7.05047,-4.81373 -13.67172,-9.07944 -14.71387,-9.47934 -2.19,-0.84039 -6.5587,8.22096 -11.86221,24.60402 -15.46919,47.78583 -9.61616,97.54256 15.93685,135.47978 23.9868,35.61196 61.06948,60.03708 111.38146,73.36325 l 7.33333,1.94239 -7.33333,-0.1452 c -4.03334,-0.0799 -10.03334,-0.35759 -13.33334,-0.61718 z"
         id="path1548" />
      <path
         style="fill:#e23b19;stroke-width:1"
         d="m 340.66667,945.84491 c -13.64784,-1.1036 -35.11903,-4.79122 -49.53562,-8.5076 -35.31337,-9.10326 -63.98956,-25.23788 -88.19368,-49.6221 -34.07881,-34.33234 -54.38077,-83.00992 -61.88566,-148.38188 -1.72679,-15.04126 -2.40954,-82.42024 -0.85095,-83.97862 1.14772,-1.1476 11.73537,4.28754 22.78168,11.6949 l 8.89575,5.96524 -0.7909,-24.17409 c -1.99328,-60.92516 10.72664,-126.5538 35.92843,-185.37332 l 6.79789,-15.86589 4.95007,19.86589 c 2.72253,10.92624 6.24897,23.69939 7.83653,28.38476 7.2051,21.26452 18.57779,37.32156 30.83167,43.53107 6.64071,3.3651 14.0172,4.77261 13.71383,2.61673 -0.1032,-0.73333 -1.27578,-11.34999 -2.60572,-23.59256 -2.11843,-19.50063 -2.2058,-23.9604 -0.70502,-35.98589 4.37506,-35.05646 19.40119,-65.5861 56.64436,-115.08822 48.37698,-64.30072 68.25231,-105.42794 72.86523,-150.77706 1.67431,-16.45983 -0.0281,-40.38907 -3.93107,-55.25507 -1.73797,-6.6198 -1.99084,-9.3012 -0.87713,-9.3012 0.86064,0 9.34204,2.73981 18.84756,6.08847 81.78387,28.8113 137.19583,66.84854 171.35993,117.6291 34.55684,51.36431 44.44339,111.22226 31.97891,193.61576 -7.81069,51.6307 -7.80436,51.96123 1.156,60.33334 4.06849,3.8014 6.46735,5 10.00687,5 6.75386,0 10.37334,-1.93674 27.4477,-14.68691 C 669.69235,507.76376 680.74693,500 681.78189,500 c 0.34912,0 3.33743,6.45 6.64068,14.33333 16.43694,39.22734 24.91076,83.44634 24.91076,129.99183 0,12.28783 0.19759,22.34151 0.43908,22.34151 0.2415,0 5.17696,-2.7 10.96772,-6 5.79075,-3.3 10.93274,-6 11.42666,-6 1.66266,0 2.87377,33.82616 1.95726,54.66666 -3.44133,78.25263 -23.33846,136.04704 -60.0901,174.54134 -31.96591,33.48162 -69.07258,51.62349 -122.03395,59.66376 -28.64968,4.34942 -83.22616,2.57254 -111.62169,-3.63412 -3.5316,-0.77192 -7.99311,-0.73938 -12,0.0876 -21.11372,4.35745 -70.9076,7.53529 -91.71164,5.85302 z m 148,-21.72914 c 15.10246,-3.79236 28.00718,-9.10298 46.66666,-19.20456 37.73556,-20.42868 52.00354,-30.63152 74.19164,-53.05346 29.2496,-29.55784 47.50963,-63.5165 55.12879,-102.52442 4.87868,-24.97746 4.03611,-61.41242 -2.06681,-89.37504 -4.46966,-20.47917 -17.31244,-55.5225 -21.23696,-57.948 -0.51996,-0.32136 -5.88516,2.54487 -11.92266,6.36938 -34.69724,21.97936 -34.40273,21.86106 -42.35489,17.01233 -2.34348,-1.42891 -5.27165,-4.14067 -6.50705,-6.02611 -2.51156,-3.83313 -1.95128,-10.46778 3.43698,-40.69922 5.71586,-32.06948 5.92328,-65.78207 0.54735,-88.96262 -15.599,-67.26158 -70.45743,-115.90349 -165.88305,-147.08528 -12.83334,-4.19349 -23.54176,-7.07293 -23.79652,-6.39877 -0.25475,0.67417 0.64445,5.55047 1.99822,10.83621 1.85099,7.22715 2.42407,14.07431 2.31086,27.61046 -0.12894,15.42053 -0.66598,19.71964 -3.74734,30 -8.91434,29.74092 -23.73972,53.8843 -59.59024,97.04384 -30.73196,36.99744 -43.50986,60.95322 -46.81034,87.75918 -1.15951,9.41739 -0.9971,14.4215 0.90145,27.77331 1.27369,8.95741 2.06192,16.54009 1.75161,16.85041 -0.31032,0.31031 -3.7403,-0.37901 -7.62222,-1.53181 -15.47852,-4.59663 -26.06386,-20.31347 -35.35326,-52.49167 -2.63517,-9.1282 -5.06902,-16.8745 -5.40854,-17.21402 -1.32663,-1.32664 -14.32984,28.75774 -20.53151,47.50196 -22.17609,67.02602 -21.28271,133.97512 2.5112,188.18737 9.96844,22.71219 22.27145,40.74511 41.31096,60.55079 33.15887,34.49322 75.10024,56.8577 122.74233,65.45012 16.3531,2.94933 19.92616,3.13298 55.33334,2.84405 28.25285,-0.23055 33.40517,-0.61397 44,-3.27443 z M 759.45403,595.33953 c -0.45928,-1.82992 -5.3832,-9.99584 -10.94204,-18.14646 -12.1446,-17.80698 -14.32474,-23.50726 -13.6117,-35.58966 0.43018,-7.28905 1.78302,-11.64088 7.33751,-23.60341 3.74555,-8.06667 8.42899,-19.76667 10.40763,-26 1.97864,-6.23333 3.88525,-12.23333 4.23692,-13.33333 0.36814,-1.15158 1.64701,0.82806 3.01468,4.66666 1.30641,3.66667 5.6899,14.46667 9.74109,24 11.19488,26.34406 12.16371,29.9847 11.32004,42.5381 -0.39903,5.93738 -1.96231,14.69524 -3.47397,19.4619 -2.83299,8.93318 -13.98739,29.33334 -16.03888,29.33334 -0.63592,0 -1.532,-1.49722 -1.99128,-3.32714 z M 210.61312,402.76869 c -8.14356,-11.14876 -16.40545,-26.55664 -21.50321,-40.10202 -7.16955,-21.47917 -5.88503,-39.24019 2.57096,-56.03212 8.34291,-18.92524 22.0029,-36.74256 26.59703,-56.22986 l 2.33254,-10.26198 8.33899,14.26198 c 23.17835,38.84514 17.0674,64.6335 5.03545,96.26198 -9.95082,26.00761 -13.66277,37.91301 -15.82874,50.76792 l -1.59648,9.47497 -5.94646,-8.14087 z M 428.66667,149.39384 c -9.53334,-7.09143 -19.94652,-15.85608 -23.14042,-19.47701 -11.80648,-13.38502 -17.51778,-30.566861 -14.8451,-44.659867 1.74924,-9.223715 7.46644,-21.389346 14.0625,-29.92363 15.57038,-20.145665 19.33987,-25.755978 20.12811,-29.95763 l 0.86937,-4.634152 7.23375,7.959861 c 14.76349,16.245428 21.46383,32.357531 19.85543,47.745804 -0.44963,4.301833 -2.59176,15.411049 -4.7603,24.687154 -5.12069,21.90426 -6.00721,33.79202 -3.6441,48.86563 1.03469,6.6 1.81214,12.06465 1.72768,12.14368 -0.0845,0.0791 -7.95359,-5.65841 -17.48692,-12.74984 z"
         id="path1550" />
    </g>
  </g>
</svg>
