<?xml version="1.0" encoding="UTF-8" standalone="no"?>
<svg
   xmlns:dc="http://purl.org/dc/elements/1.1/"
   xmlns:cc="http://creativecommons.org/ns#"
   xmlns:rdf="http://www.w3.org/1999/02/22-rdf-syntax-ns#"
   xmlns:svg="http://www.w3.org/2000/svg"
   xmlns="http://www.w3.org/2000/svg"
   version="1.1"
   id="svg885"
   width="60.366165"
   height="54.04887"
   viewBox="0 0 60.366166 54.04887">
  <metadata
     id="metadata891">
    <rdf:RDF>
      <cc:Work
         rdf:about="">
        <dc:format>image/svg+xml</dc:format>
        <dc:type
           rdf:resource="http://purl.org/dc/dcmitype/StillImage" />
        <dc:title></dc:title>
      </cc:Work>
    </rdf:RDF>
  </metadata>
  <defs
     id="defs889" />
  <g
     id="g893"
     transform="translate(-367.6968,-262.14142)">
    <path
       style="fill:#e4002b;fill-opacity:1;stroke:#000000;stroke-width:4.7811;stroke-linejoin:miter;stroke-miterlimit:3.9;stroke-dasharray:none;stroke-opacity:1"
       d="m 397.29218,313.5386 c -3.35299,-4.36951 -8.42638,-8.29751 -13.5,-12.08533 -5.07362,-3.78782 -12.30554,-10.51111 -13.14115,-15.60708 -1.01735,-5.16002 -0.75874,-10.66774 1.90152,-14.70752 1.58499,-2.37483 3.43773,-3.97764 6.10516,-5.28157 4.38344,-1.94264 9.25092,-1.50435 12.28685,0.045 2.75325,1.41361 5.37433,4.77795 6.945,7.5306 1.37395,-2.60125 3.78752,-5.52862 6.40493,-7.22526 2.61742,-1.69665 9.5603,-2.41793 13.57587,-0.006 4.01557,2.4118 5.54039,4.43417 6.62091,7.43802 1.08052,3.00385 1.539,8.82387 0.0832,13.16585 -1.4558,4.34198 -6.6937,10.26253 -12.99629,14.93483 -6.30259,4.6723 -9.13442,7.09668 -13.13444,11.76852 -0.2625,0.36169 -0.90151,0.40333 -1.15156,0.03 z"
       id="path897" />
    <path
       style="fill:#f7f7f7;fill-opacity:1;stroke:none;stroke-width:4.7811;stroke-linejoin:miter;stroke-miterlimit:3.9;stroke-dasharray:none;stroke-opacity:1"
       d="m 410.54046,266.85444 c 9.28637,-0.72611 14.20023,7.29795 13.99177,13.33384 -0.1817,4.40415 -4.18516,15.37762 -16.85583,21.58505 11.18227,-9.75281 20.52372,-27.67804 2.86406,-34.91889 z"
       id="path961" />
    <path
       style="fill:none;fill-opacity:1;stroke:#001147;stroke-width:4.7811;stroke-linejoin:miter;stroke-miterlimit:3.9;stroke-dasharray:none;stroke-opacity:1"
       d="m 397.29218,313.5386 c -3.35299,-4.36951 -8.42638,-8.29751 -13.5,-12.08533 -5.07362,-3.78782 -12.30554,-10.51111 -13.14115,-15.60708 -1.01735,-5.16002 -0.75874,-10.66774 1.90152,-14.70752 1.58499,-2.37483 3.43773,-3.97764 6.10516,-5.28157 4.38344,-1.94264 9.25092,-1.50435 12.28685,0.045 2.75325,1.41361 5.37433,4.77795 6.945,7.5306 1.37395,-2.60125 3.78752,-5.52862 6.40493,-7.22526 2.61742,-1.69665 9.5603,-2.41793 13.57587,-0.006 4.01557,2.4118 5.86534,5.17594 6.94586,8.17979 1.08052,3.00385 1.22906,7.44091 -0.22674,11.78289 -1.4558,4.34198 -6.70871,10.90372 -13.0113,15.57602 -6.30259,4.6723 -9.13442,7.09668 -13.13444,11.76852 -0.2625,0.36169 -0.90151,0.40333 -1.15156,0.03 z"
       id="path897-1" />
  </g>
</svg>
