<?xml version="1.0" encoding="UTF-8" standalone="no"?>
<svg
   xmlns:dc="http://purl.org/dc/elements/1.1/"
   xmlns:cc="http://creativecommons.org/ns#"
   xmlns:rdf="http://www.w3.org/1999/02/22-rdf-syntax-ns#"
   xmlns:svg="http://www.w3.org/2000/svg"
   xmlns="http://www.w3.org/2000/svg"
   xmlns:sodipodi="http://sodipodi.sourceforge.net/DTD/sodipodi-0.dtd"
   xmlns:inkscape="http://www.inkscape.org/namespaces/inkscape"
   version="1.1"
   id="svg885"
   width="558.93689"
   height="411.21088"
   viewBox="0 0 558.93688 411.21088"
   sodipodi:docname="intelligence.svg"
   inkscape:version="1.0.2 (e86c870879, 2021-01-15)">
  <metadata
     id="metadata891">
    <rdf:RDF>
      <cc:Work
         rdf:about="">
        <dc:format>image/svg+xml</dc:format>
        <dc:type
           rdf:resource="http://purl.org/dc/dcmitype/StillImage" />
        <dc:title></dc:title>
      </cc:Work>
    </rdf:RDF>
  </metadata>
  <defs
     id="defs889" />
  <sodipodi:namedview
     pagecolor="#ffffff"
     bordercolor="#666666"
     borderopacity="1"
     objecttolerance="10"
     gridtolerance="10"
     guidetolerance="10"
     inkscape:pageopacity="0"
     inkscape:pageshadow="2"
     inkscape:window-width="1920"
     inkscape:window-height="1050"
     id="namedview887"
     showgrid="false"
     inkscape:zoom="0.57061844"
     inkscape:cx="-2.9226746"
     inkscape:cy="19.952394"
     inkscape:window-x="0"
     inkscape:window-y="30"
     inkscape:window-maximized="1"
     inkscape:current-layer="g893" />
  <g
     inkscape:groupmode="layer"
     inkscape:label="Image"
     id="g893"
     transform="translate(15.477476,-40.304775)">
    <g
       id="g925"
       transform="translate(-0.50783239,-19.229359)"
       style="fill:#fdd587;fill-opacity:1;stroke:#001147;stroke-width:30.2362;stroke-miterlimit:4;stroke-dasharray:none;stroke-opacity:1">
      <path
         style="fill:#fdd587;fill-opacity:1;stroke:#001147;stroke-width:30.2362;stroke-miterlimit:4;stroke-dasharray:none;stroke-opacity:1"
         d="m 263.01958,98.776285 15.17396,-4.434227 c 22.79441,-6.661121 48.62456,-15.616912 72.77419,-18.297426 13.51851,-1.500504 44.31441,-1.498241 57.59956,0.0042 30.8603,3.490114 78.193,17.365426 83.87353,24.587048 83.06222,280.62558 -212.49785,342.44557 -229.42124,-1.859595 z"
         id="path937"
         sodipodi:nodetypes="cssscc" />
      <path
         style="fill:#fdd587;fill-opacity:1;stroke:#001147;stroke-width:30.2362;stroke-miterlimit:4;stroke-dasharray:none;stroke-opacity:1"
         d="m 527.56535,146.69872 c 0.0496,-1.20253 0.29413,-1.44712 0.62365,-0.62366 0.29819,0.74516 0.26152,1.63548 -0.0815,1.9785 -0.34301,0.34301 -0.58698,-0.26668 -0.54216,-1.35484 z"
         id="path935"
         sodipodi:nodetypes="sssss" />
      <path
         style="fill:#fdd587;fill-opacity:1;stroke:#001147;stroke-width:30.2362;stroke-miterlimit:4;stroke-dasharray:none;stroke-opacity:1"
         d="m 34.232653,113.28881 c 0.286394,-9.2147 0.693462,-11.57778 2.299725,-13.350221 2.420659,-2.671088 24.153308,-11.20052 39.338587,-15.439249 26.341715,-7.352871 45.376305,-9.892281 73.806445,-9.846536 22.3008,0.03588 29.70004,0.708309 51.61291,4.690461 l 12.87203,1.94187 -0.31865,21.525515 C 132.06858,494.74168 21.376275,478.32707 34.232653,113.28881 Z"
         id="path939"
         sodipodi:nodetypes="cssssccc" />
      <path
         style="fill:#fdd587;fill-opacity:1;stroke:#001147;stroke-width:30.2362;stroke-miterlimit:4;stroke-dasharray:none;stroke-opacity:1"
         d="M 20.129304,452.55389 C -0.44158358,452.95284 0.53068899,447.5747 0.29188252,434.57848 L 0.23942835,294.91376 C 0.20259792,196.84889 0.31004656,149.26734 1.0515184,145.75248 3.5594184,133.86406 12.965834,126.50625 26.570124,125.7915 l 7.473351,-0.39264 C 200.7743,112.65612 358.24809,128.00259 494.4516,125.3978 l 7.48387,0.39316 c 13.61544,0.7153 23.02038,8.06913 25.52912,19.96152 0.74147,3.51486 1.00053,51.09658 0.81209,149.16128 0.12769,43.3765 1.25984,96.51331 -0.0747,142.3273 -3.0268,5.65109 -7.00307,12.93447 -25.53057,14.97787 -18.5275,2.0434 -135.56343,-2.34793 -206.75328,-3.41124 -0.24369,9.89408 -70.51322,8.22504 -67.31723,0.0799 -137.667982,4.52963 -187.900759,3.26736 -208.471646,3.6663 z"
         id="path929"
         sodipodi:nodetypes="zcsssccsscczcczz" />
      <path
         style="fill:#fdd587;fill-opacity:1;stroke:#001147;stroke-width:30.2362;stroke-miterlimit:4;stroke-dasharray:none;stroke-opacity:1"
         d="m 214.30398,80.804649 c 0.96572,-2.516621 4.99816,-1.992622 18.47971,2.401358 18.74612,6.109838 28.64035,10.554253 30.15356,13.544752 26.13517,188.286871 -78.61508,173.052011 -48.63327,-15.94611 z"
         id="path927"
         sodipodi:nodetypes="cscc" />
    </g>
    <g
       id="g959"
       transform="translate(-0.50783239,-19.229359)">
      <path
         style="fill:#fdd587;stroke-width:1"
         d="m 264.40573,328.31453 c 0.0812,-43.0672 -1.2302,-112.55972 -0.29397,-153.97799 l -1.09218,-75.560255 15.17396,-4.434227 c 22.79441,-6.661121 48.62456,-15.616912 72.77419,-18.297426 13.51851,-1.500504 44.31441,-1.498241 57.59956,0.0042 30.8603,3.490114 78.193,17.365426 83.87353,24.587048 1.97146,2.5063 2.01078,5.42776 2.01078,149.42208 v 146.86579 l -3.17598,2.67242 c -1.74678,1.46982 -3.8695,2.6724 -4.71713,2.6724 -0.84764,0 -7.36679,-2.11171 -14.48699,-4.69269 -29.716,-10.77165 -52.43713,-14.94957 -85.25215,-15.67601 -45.68589,-1.01137 -76.71995,7.12329 -122.97957,26.46679 -1.02642,0.4292 0.44848,-17.76385 0.56595,-80.05216 z m 48.78746,18.24047 c 8.09256,-2.17083 15.64095,-4.78608 16.7742,-5.81166 2.49416,-2.25719 2.97071,-6.13943 0.71846,-9.35497 -2.626,-3.74914 -6.56037,-3.79648 -20.30125,-0.24426 -18.03255,4.66166 -19.07467,5.34406 -19.07467,12.22546 0,3.56981 2.72626,6.65249 6.6534,7.07665 0.28387,0.0307 7.13731,-1.72039 15.22986,-3.89122 z m 149.40555,2.78787 c 1.59506,-0.82484 3.47031,-2.87627 4.16721,-4.55874 1.06129,-2.5622 0.98174,-3.66039 -0.48985,-6.76151 -1.60435,-3.38092 -1.83713,-2.35293 -9.77033,-4.7727 -23.76471,-7.24869 -48.83565,-10.41906 -78.27565,-10.41906 -20.44057,0 -22.00186,-0.62173 -25.14539,2.5218 -2.47975,2.47975 -2.98544,7.46168 -0.25604,10.367 2.19894,2.34066 2.4136,2.6686 22.35665,2.6686 11.19571,0 25.35706,0.36665 31.23657,0.95835 12.18389,1.22617 37.6169,6.19046 46.81904,9.13866 7.73837,2.47923 5.81048,2.69198 9.35779,0.8576 z M 313.17859,312.43793 c 14.7913,-4.71545 43.19186,-8.22892 66.58064,-8.23676 25.41435,-0.008 45.17777,2.61541 69.5592,9.23521 10.15597,2.75745 10.4004,3.00875 13.4373,1.73984 6.89347,-2.88028 8.47213,-11.00492 1.49503,-13.74243 -9.25643,-3.63182 -37.40686,-9.63606 -54.50029,-11.62443 -14.84383,-1.72667 -47.06466,-1.47808 -62.56021,0.48271 -23.98165,3.03459 -50.23958,9.44887 -54.34301,13.27489 -4.1355,3.85593 -1.9472,9.92452 3.51486,11.94507 2.04372,0.75602 9.32303,-0.68518 16.81648,-3.0741 z m -0.99982,-33.55552 c 22.08793,-5.788 36.80772,-7.82171 61.54686,-8.50337 20.8428,-0.5743 20.8467,-0.2372 23.36467,-2.40307 3.70127,-3.18369 3.71166,-6.86905 0.74582,-11.2338 -3.92998,-3.84588 -12.72654,-2.68891 -19.84626,-2.65429 -20.96065,0.10199 -33.08961,1.68598 -52.91018,5.69612 -27.69635,5.60357 -33.85533,7.58086 -33.85533,14.77384 0,4.06983 1.88948,6.17556 7.01893,7.82849 5.53017,-1.30828 9.4444,-2.32856 13.93549,-3.50392 z m 151.2855,2.31242 c 3.36924,-1.81887 6.0575,-5.56038 3.81298,-10.26719 -1.49031,-3.1252 -2.29062,-3.09765 -9.99153,-5.44657 -11.6905,-3.56582 -25.69886,-6.84395 -30.63052,-6.87107 -5.45976,-0.03 -7.80968,2.13322 -7.80968,7.24938 0,6.00847 2.2526,7.25387 17.56418,10.79374 9.42886,1.80124 22.56374,6.54937 27.05457,4.54171 z m 3.74727,-37.58451 c 1.77155,-4.23989 -0.0987,-7.81319 -3.63792,-9.70735 -6.43305,-3.44286 -34.33333,-9.83034 -54.57432,-12.25506 -13.15589,-1.57598 -46.45574,-1.57418 -59.87097,0.003 -23.13297,2.72007 -51.89913,9.67689 -56.06888,13.55171 -2.96035,2.75096 -2.28814,6.52458 0.57023,10.1584 2.7608,3.50978 5.50722,2.48141 17.82109,-0.88964 22.69306,-6.21247 43.31708,-8.87661 68.44827,-8.84192 25.99498,0.0359 45.44858,2.65607 71.91574,9.68621 8.39925,1.08447 12.90399,3.91845 15.39676,-1.70535 z M 312.24311,210.37737 c 6.4705,-1.68824 18.50003,-4.2244 26.73229,-5.6359 16.60129,-2.84646 18.38025,-3.80976 18.38025,-10.39179 0,-4.44878 -3.46031,-7.02583 -7.5632,-7.01717 -12.37058,0.0261 -53.46678,9.23733 -57.30535,13.89466 -2.57842,3.1284 -0.83044,8.72757 1.20988,10.45061 3.46836,2.92902 3.72837,2.56573 18.54613,-1.30041 z m 152.41529,2.41115 c 1.05268,-0.56339 2.44233,-2.62527 3.0881,-4.58196 1.48043,-4.48575 -1.51356,-7.66605 -5.77161,-9.34795 -19.9146,-7.8661 -72.60332,-15.80535 -81.45846,-12.10544 -5.9829,2.49981 -5.19627,10.66645 0.30546,14.10234 1.3984,0.87332 7.11824,0.97006 15.00293,1.4671 20.04505,1.26356 36.78309,3.85524 52.50753,8.49729 7.62419,2.25075 13.52571,3.46731 16.32605,1.96862 z M 331.26338,172.27368 c 20.04568,-3.72896 31.0951,-4.49214 56.9641,-3.89711 9.136,0.41057 15.37441,0.35791 26.19998,-0.86813 4.08035,-4.08036 3.29293,-10.36651 -1.65617,-12.9258 -4.03639,-2.0873 -28.45172,-3.35816 -43.68304,-2.57588 -30.58064,1.5706 -69.61158,9.10185 -75.74541,14.81381 -4.38055,4.07926 -2.71827,11.93097 3.1024,12.85535 1.26611,0.20106 7.17943,-0.92853 13.14072,-2.5102 5.96129,-1.58168 15.71613,-3.7831 21.67742,-4.89204 z m 132.02567,6.55605 c 6.99645,-2.92331 7.11383,-11.05611 0.0708,-13.8546 -4.76346,-1.89273 -17.21399,-5.56182 -19.81019,-5.56182 -3.22963,0 -8.02677,4.3566 -8.02677,7.65486 0,1.43137 1.04877,3.82177 2.33062,5.312 2.15834,2.50921 3.22288,2.48912 21.86486,7.7436 0.16017,0.0451 1.66393,-0.49737 3.57064,-1.29404 z M 310.13048,143.0437 c 10.09548,-2.8807 13.15982,-4.58677 13.15982,-9.59728 0,-4.38114 -3.14825,-8.28415 -7.22851,-8.28415 -5.17519,0 -20.55056,5.4156 -23.10527,7.81563 -5.33247,5.0096 1.93346,12.72198 6.09046,12.45911 1.86729,-0.11808 6.35379,-1.04371 11.0835,-2.39331 z m 153.9538,0.73753 c 3.11747,-1.66843 4.82728,-5.10722 2.99345,-8.65344 -1.91645,-3.70604 -3.34385,-5.04716 -17.84712,-8.78667 -28.64942,-7.38694 -58.69763,-9.97112 -85.5061,-8.05946 -17.15648,1.2234 -18.09182,2.35155 -20.24499,7.07727 -1.44411,3.16947 -0.9808,5.57153 2.34347,8.05349 2.3348,1.74317 3.34051,1.11202 17.65899,0.28711 28.71352,-1.65423 58.37918,1.63039 83.01758,8.42099 11.67831,3.21865 14.58722,3.26492 17.58472,1.66071 z M 34.565205,257.75248 c 0,-72.95484 0.123017,-102.8 0.273369,-66.32258 0.150353,36.47742 0.150353,96.16774 0,132.64515 -0.150352,36.47742 -0.273369,6.63226 -0.273369,-66.32257 z m 80.854145,125.23033 c 0.74516,-0.29819 1.63548,-0.26152 1.9785,0.0814 0.34301,0.34301 -0.26667,0.58699 -1.35484,0.54217 -1.20253,-0.0496 -1.44712,-0.29413 -0.62366,-0.62365 z m 28.83871,-2.1152 c 2.4129,-0.21732 6.36129,-0.21732 8.77419,0 2.41291,0.21733 0.43871,0.39515 -4.38709,0.39515 -4.82581,0 -6.8,-0.17782 -4.3871,-0.39515 z"
         id="path945"
         sodipodi:nodetypes="sscssssscsssssssssssssssssssssssssscsssssssscssccsscccsssscccsscssssccssssssssssssssssccssssssssssssssssssssssssssssscsscscccsssss" />
      <path
         style="fill:#e3bc89;stroke-width:1"
         d="m 36.008972,423.30913 c -4.0601,-2.0543 -1.912647,-6.20271 -1.92924,-17.09016 l -0.01522,-9.98511 3.01737,3.01737 c 1.659553,1.65956 3.866004,3.01728 4.903225,3.01716 1.037221,-1.2e-4 8.62134,-2.35863 16.853598,-5.24115 16.912203,-5.92179 34.177338,-10.27718 51.612905,-13.02014 14.72415,-2.31639 60.40973,-2.64663 74.32258,-0.53723 24.23347,3.67415 44.45851,9.06178 65.29032,17.39231 l 14.19355,5.67591 14.19354,-5.67591 c 23.59682,-9.43624 48.70563,-15.69653 73.27297,-18.26887 17.2061,-1.80158 55.30007,-0.74248 71.04148,1.97514 16.83474,2.90636 33.75027,7.36891 49.30545,13.00746 7.1202,2.58098 13.63935,4.69269 14.48699,4.69269 0.84763,0 2.97035,-1.20258 4.71713,-2.6724 l 3.17598,-2.67242 -0.0328,10.67242 c -0.0341,11.08548 -0.61531,12.91882 -4.80254,15.14895 -231.00417,9.49199 -238.65546,8.02215 -453.607288,0.56398 z"
         id="path947"
         sodipodi:nodetypes="cscsssssscsssssscscc" />
      <path
         style="fill:#c29e7e;stroke-width:1;fill-opacity:1"
         d="m 62.50443,348.22172 c -3.8246,-3.8246 -3.064394,-9.96259 1.594227,-12.87195 2.980721,-1.86149 25.233334,-7.40375 29.726647,-7.40375 4.819736,0 8.368236,3.37208 8.368236,7.95218 0,5.45945 -2.559837,7.18225 -15.999995,10.76816 -17.388499,4.63935 -20.40694,4.83752 -23.689115,1.55536 z m 159.43105,0.82951 c -8.58722,-2.71076 -28.14685,-6.78436 -40.18587,-8.36933 -7.12574,-0.93812 -21.24432,-1.63786 -35.0022,-1.73476 -22.89768,-0.16127 -23.07284,-0.17946 -25.03226,-2.59934 -2.4757,-3.05751 -2.53048,-7.48488 -0.12931,-10.4502 2.57024,-3.1741 8.40299,-4.05217 27.05932,-4.07354 24.7527,-0.0284 44.54781,2.35096 68.12903,8.18888 19.28611,4.7746 21.67741,6.13859 21.67741,12.36474 0,7.47986 -6.12364,9.95419 -16.51612,6.67355 z M 62.402321,313.85981 c -2.92214,-3.15304 -3.155181,-5.45512 -0.978353,-9.66465 1.254566,-2.42607 2.891087,-3.3943 8.516129,-5.03854 50.342713,-14.71542 102.363043,-15.38996 151.774943,-1.96805 14.03887,3.81343 16.73656,5.60978 16.73656,11.14455 0,3.06929 -0.62193,4.4684 -2.71985,6.11863 -3.49905,2.75235 -5.74206,2.69402 -16.88538,-0.43905 -22.53724,-6.33661 -43.01795,-9.02651 -69.16896,-9.08451 -26.09959,-0.0579 -46.15821,2.56076 -69.876828,9.12239 -11.726178,3.24399 -14.24058,3.21642 -17.398261,-0.19077 z m 0.0024,-33.86687 c -2.91422,-2.91422 -3.18187,-5.60574 -0.980722,-9.8623 1.73637,-3.35776 7.133016,-5.31435 27.236139,-9.87464 19.943532,-4.52408 33.300432,-5.9597 56.200502,-6.04053 21.39682,-0.0756 21.5158,-0.0636 23.48387,2.36104 2.56744,3.16299 2.53704,8.44479 -0.0646,11.23739 -2.55571,2.74324 -5.7855,3.14377 -30.47336,3.77907 -21.35595,0.54956 -36.02386,2.62741 -55.741934,7.89637 -13.883528,3.7099 -16.389347,3.77408 -19.659824,0.5036 z m 163.571319,2.10115 c -0.56638,-0.56638 -19.3676,-5.29732 -27.15985,-6.83422 -7.24726,-1.4294 -10.94521,-4.55438 -10.94521,-9.24933 0,-4.18574 4.0176,-8.25806 8.14709,-8.25806 7.03513,0 36.3287,7.73485 39.88355,10.5311 3.46281,2.72385 3.54455,8.81985 0.16089,11.99864 -2.12533,1.99664 -8.71753,3.18082 -10.08648,1.81187 z M 213.7601,141.59884 201.03225,139.23637 c -20.49777,-3.80468 -46.02608,-5.87944 -65.17076,-4.65249 -17.06842,1.09387 -20.49097,0.71402 -22.97035,-2.5494 -1.92223,-2.53009 -1.71179,-7.87077 0.41356,-10.49547 2.75114,-3.39751 14.21985,-4.44088 42.56626,-3.87248 19.97329,0.40051 26.95918,0.96036 39.55025,3.16952 8.4107,1.4757 18.33455,3.3332 18.85418,3.65436 m 0.76089,109.63396 c 0.58051,0.93929 1.69746,2.62147 3.26677,0.85775 5.56363,-6.25289 4.68725,1.53805 1.39287,5.72617 -2.1237,2.69985 -2.56424,2.81581 -8.51613,2.24173 -3.45212,-0.33297 -11.38625,-1.53911 -17.63141,-2.68031 -36.43425,-6.65779 -78.10161,-4.57629 -114.019885,5.6959 -11.161257,3.19198 -13.920233,3.1664 -17.246562,-0.15994 -2.213249,-2.21325 -2.306508,-3.2582 -1.800376,-6.42012 0.416484,-2.60187 1.184788,-4.27522 3.315188,-5.69185 2.1304,-1.41662 5.622896,-2.57652 11.487765,-4.15148 13.982787,-3.75496 24.72197,-6.10905 35.86154,-7.52569 11.13956,-1.41664 22.67951,-1.89583 38.26384,-1.90098 12.98819,-0.004 25.0688,-0.14624 35.70355,1.03013 10.63474,1.17637 19.82361,3.67134 29.14915,5.56173 m -0.20727,-16.9368 c -7.5425,-1.39304 -38.35359,-6.16762 -47.38387,-6.86152 -14.79745,-1.13705 -16.65097,-1.49389 -18.77088,-3.61381 -3.24784,-3.24783 -3.15412,-8.55859 0.20675,-11.71595 2.50172,-2.35025 2.87674,-2.3894 16.77419,-1.7516 6.43325,0.29525 16.55428,1.17805 26.01613,2.55372 9.46184,1.37567 12.73624,1.92478 23.26629,4.44571 M 62.507759,211.96698 c -4.421889,-4.42188 -2.913409,-11.14811 3.0599,-13.64392 5.483469,-2.29114 25.540941,-7.25538 36.625881,-9.06494 20.29122,-3.31244 19.18223,-3.32094 22.6768,0.17365 3.74932,3.7493 4.01162,7.32347 0.80707,10.99737 -2.04297,2.3422 -4.12449,2.96353 -17.29032,5.16112 -8.23225,1.37409 -19.6129,3.75864 -25.290319,5.29898 -15.211159,4.12695 -17.423972,4.24279 -20.589012,1.07774 z m -0.225826,-34.29034 c -2.179174,-2.17917 -2.550663,-3.30855 -2.067547,-6.28566 0.323914,-1.99604 1.135493,-4.28773 1.803507,-5.09264 2.915595,-3.51308 33.320542,-10.64959 57.207907,-13.42758 18.06802,-2.10124 58.04402,-1.6468 62.95946,0.71571 6.53008,3.13854 7.2978,10.28513 1.55667,14.49068 -2.41429,1.76853 -3.63482,1.81396 -18.93322,0.70472 -26.28315,-1.90571 -54.96149,1.0085 -83.140952,8.44855 -14.315887,3.77974 -16.01324,3.81881 -19.385825,0.44622 z m 0.712063,-33.44629 c -4.33241,-4.33241 -3.470126,-11.16087 1.735848,-13.74625 1.585682,-0.78747 6.933418,-2.49774 11.883862,-3.8006 7.606036,-2.00176 9.471833,-2.17372 12.040477,-1.10977 5.727132,2.37227 6.808995,10.71187 1.814164,13.98461 -3.030688,1.98579 -18.821798,6.6598 -22.597382,6.68861 -1.56129,0.0119 -3.755926,-0.89555 -4.876969,-2.0166 z"
         id="path949"
         sodipodi:nodetypes="ssssssssssssssssscssssssscsscssssccsssssssscssssssccsssssssssscsccssssscssssssssssssssssscsscssc" />
      <path
         style="fill:#fde9b6;stroke-width:1"
         d="M 253.93547,402.28258 C 237.22906,394.876 215.11985,389.5521 194.12115,385.97346 147.2196,377.9804 96.125236,382.64611 52.581632,399.90474 c -8.206173,3.25254 -17.315953,5.08623 -20.321241,1.76539 -1.550651,-1.71344 2.767377,-15.65692 2.817318,-140.16864 -7.073266,-56.74496 -1.618777,-123.31824 -0.845056,-148.21268 0.286394,-9.2147 0.693462,-11.57778 2.299725,-13.350221 2.420659,-2.671088 24.153308,-11.20052 39.338587,-15.439249 26.341715,-7.352871 45.376305,-9.892281 73.806445,-9.846536 22.3008,0.03588 29.70004,0.708309 51.61291,4.690461 l 12.87203,1.94187 -0.31865,21.525515 c -0.1834,12.38873 0.56637,21.96472 0.0349,21.63626 -0.5092,-0.3147 -10.04669,-2.1352 -18.45739,-3.6109 -12.59107,-2.20916 -19.57696,-2.76901 -39.55025,-3.16952 -28.34641,-0.5684 -39.81512,0.47497 -42.56626,3.87248 -2.12535,2.6247 -2.33579,7.96538 -0.41356,10.49547 2.47938,3.26342 5.90193,3.64327 22.97035,2.5494 19.14468,-1.22695 44.72076,0.59891 65.17076,4.65249 l 12.72785,2.36251 -0.0757,25.18844 0.47952,26.03988 -5.38974,-1.25426 c -10.02041,-2.33188 -31.02617,-5.15472 -43.89268,-5.74521 -13.89745,-0.63781 -14.27247,-0.59865 -16.77419,1.7516 -3.36087,3.15736 -3.45459,8.46812 -0.20675,11.71595 2.11991,2.11992 3.97343,2.47676 18.77088,3.61381 9.03028,0.6939 22.58984,2.4014 30.13234,3.79444 7.5425,1.39305 16.44343,2.84699 17.02855,2.84699 0.64558,0 0.51769,3.39799 0.53253,8.64133 v 8.64061 L 203.6129,224.6866 c -18.66239,-3.72455 -28.47525,-4.61117 -54.45162,-4.60258 -31.16866,0.0103 -46.15981,1.91676 -74.125385,9.42667 -11.729737,3.14992 -13.969984,4.63959 -14.802953,9.84333 -0.50613,3.16192 -0.164258,4.23836 2.048991,6.45161 3.326329,3.32634 6.085305,3.35192 17.246562,0.15994 35.918275,-10.27219 77.585635,-12.35369 114.019885,-5.6959 6.24516,1.1412 14.17929,2.34734 17.63141,2.68031 5.95189,0.57408 6.39243,0.45812 8.51613,-2.24173 1.23175,-1.56593 2.48908,-5.18482 2.6168,-6.09291 0.54787,-3.89561 -4.97335,-0.95402 6.72608,-6.15102 4.17781,-1.85582 7.74693,-5.36131 9.636,-6.10787 0.45147,-0.17842 5.66257,3.62952 10.86552,7.12797 7.44575,5.00651 9.35685,6.07084 11.73148,6.00221 l 2.73907,-8.70807 0.24719,94.12039 c 0.1235,47.0241 -0.34839,85.44799 -0.7742,85.38608 -3.71477,-1.43912 -6.56816,-2.68363 -9.54839,-4.00245 z M 86.193545,346.66636 c 13.440158,-3.58591 15.999995,-5.30871 15.999995,-10.76816 0,-4.5801 -3.5485,-7.95218 -8.368236,-7.95218 -4.493313,0 -26.745926,5.54226 -29.726647,7.40375 -4.658621,2.90936 -5.418827,9.04735 -1.594227,12.87195 3.282175,3.28216 6.300616,3.08399 23.689115,-1.55536 z m 149.868945,1.74489 c 1.65577,-1.55552 2.38911,-3.40754 2.38911,-6.03357 0,-6.22615 -2.3913,-7.59014 -21.67741,-12.36474 -23.58122,-5.83792 -43.37633,-8.21723 -68.12903,-8.18888 -18.65633,0.0214 -24.48908,0.89944 -27.05932,4.07354 -2.40117,2.96532 -2.34639,7.39269 0.12931,10.4502 1.95942,2.41988 2.13458,2.43807 25.03226,2.59934 13.75788,0.0969 27.87646,0.79664 35.0022,1.73476 12.03902,1.58497 31.59865,5.65857 40.18587,8.36933 6.90183,2.17873 11.34067,1.97764 14.12701,-0.63998 z M 79.800582,314.05058 c 23.718618,-6.56163 43.777238,-9.18027 69.876828,-9.12239 26.15101,0.058 46.63172,2.7479 69.16896,9.08451 11.14332,3.13307 13.38633,3.1914 16.88538,0.43905 2.09792,-1.65023 2.71985,-3.04934 2.71985,-6.11863 0,-5.53477 -2.69769,-7.33112 -16.73656,-11.14455 -49.4119,-13.42191 -101.43223,-12.74737 -151.774943,1.96805 -5.625042,1.64424 -7.261563,2.61247 -8.516129,5.03854 -2.176828,4.20953 -1.943787,6.51161 0.978353,9.66465 3.157681,3.40719 5.672083,3.43476 17.398261,0.19077 z m 2.263931,-34.56124 c 19.718067,-5.26896 34.385977,-7.34681 55.741937,-7.89637 24.68786,-0.6353 27.91765,-1.03583 30.47336,-3.77907 2.60171,-2.7926 2.63211,-8.0744 0.0646,-11.23739 -1.96807,-2.42459 -2.08705,-2.43656 -23.48387,-2.36104 -22.90008,0.0808 -36.25698,1.51645 -56.200504,6.04053 -20.103124,4.56029 -25.49977,6.51688 -27.23614,9.87464 -2.201148,4.25656 -1.933497,6.94808 0.980722,9.8623 3.270477,3.27048 5.776296,3.2063 19.659824,-0.5036 z m 153.997977,0.79288 c 3.38366,-3.17879 3.30192,-9.27479 -0.16089,-11.99864 -3.55485,-2.79625 -32.84842,-10.5311 -39.88355,-10.5311 -4.12949,0 -8.14709,4.07232 -8.14709,8.25806 0,4.69495 3.69795,7.81993 10.9452,9.24933 7.79225,1.5369 26.59347,6.26784 27.15985,6.83422 1.36895,1.36895 7.96115,0.18477 10.08648,-1.81187 z M 83.096771,210.88924 c 5.677419,-1.54034 17.058069,-3.92489 25.290319,-5.29898 13.16583,-2.19759 15.24735,-2.81892 17.29032,-5.16112 3.20455,-3.6739 2.94225,-7.24807 -0.80707,-10.99737 -3.49457,-3.49459 -2.38558,-3.48609 -22.6768,-0.17365 -11.08494,1.80956 -31.142412,6.7738 -36.625881,9.06494 -5.973309,2.49581 -7.481789,9.22204 -3.0599,13.64392 3.16504,3.16505 5.377853,3.04921 20.589012,-1.07774 z m -1.429013,-33.65882 c 28.179462,-7.44005 56.857802,-10.35426 83.140952,-8.44855 15.2984,1.10924 16.51893,1.06381 18.93322,-0.70472 5.74113,-4.20555 4.97341,-11.35214 -1.55667,-14.49068 -4.91544,-2.36251 -44.89144,-2.81695 -62.95946,-0.71571 -23.887365,2.77799 -54.292312,9.9145 -57.207907,13.42758 -0.668014,0.80491 -1.479593,3.0966 -1.803507,5.09264 -0.483116,2.97711 -0.111627,4.10649 2.067547,6.28566 3.372585,3.37259 5.069938,3.33352 19.385825,-0.44622 z m -2.279795,-33.55164 c 4.773058,-1.40059 9.759231,-3.25479 11.080384,-4.12044 4.994831,-3.27274 3.912968,-11.61234 -1.814164,-13.98461 -2.568644,-1.06395 -4.434441,-0.89199 -12.040477,1.10977 -11.434531,3.00935 -14.512396,4.56294 -15.812077,7.98135 -2.044709,5.37799 1.766769,11.62256 7.069336,11.5821 1.561291,-0.0119 6.743939,-1.1676 11.516998,-2.56817 z"
         id="path951"
         sodipodi:nodetypes="csssccsssscsssssssscccsssssssscsssssssssssssscsccsssssssssssssssssssssssssssssssssssssssssssssssssssssssssssssscssss" />
      <path
         style="fill:#a5886c;stroke-width:1;fill-opacity:1"
         d="m 293.50108,349.16403 c -5.28826,-3.79401 -3.56491,-11.71776 3.15959,-14.52743 5.34022,-2.23129 23.89471,-6.69058 27.83856,-6.69058 8.43571,0 10.71678,12.29708 2.85072,15.36805 -4.05459,1.58295 -23.86238,6.56494 -27.99512,7.04124 -2.21894,0.25574 -4.47749,-0.20389 -5.85375,-1.19128 z m 157.07955,-0.65249 c -20.2337,-6.38952 -42.7843,-9.43269 -71.74193,-9.68148 -12.7742,-0.10975 -23.99618,-0.54661 -24.93775,-0.9708 -2.36828,-1.06695 -4.33215,-6.24729 -3.54989,-9.36402 0.35719,-1.42319 1.89891,-3.4064 3.42604,-4.40713 2.44688,-1.60345 5.54001,-1.81735 26.04813,-1.8013 24.281,0.019 33.72741,0.91621 55.44477,5.26608 17.59416,3.52401 29.40632,7.19019 31.56869,9.79805 4.30085,5.18694 0.15889,13.39942 -6.66276,13.2106 -1.87097,-0.0518 -6.18885,-0.97429 -9.5953,-2.05 z M 294.52508,315.36411 c -3.36718,-1.62789 -5.00485,-6.32168 -3.48547,-9.98976 1.51201,-3.65034 3.30369,-4.57583 15.0249,-7.76106 22.24316,-6.04455 40.72596,-8.76487 65.17216,-9.59209 28.10657,-0.95107 56.32676,2.4203 82.94612,9.90929 11.72102,3.29755 14.46235,5.29993 14.46235,10.56391 0,3.49075 -4.01747,8.09678 -7.06219,8.09678 -1.0971,0 -8.20209,-1.5805 -15.78885,-3.51222 -45.7113,-11.63891 -91.00096,-11.48509 -134.29328,0.45611 -11.99088,3.30741 -13.56666,3.47719 -16.97574,1.82904 z m -0.45424,-33.87663 c -2.94853,-1.7228 -4.43492,-6.78886 -3.00485,-10.24137 1.52579,-3.68358 5.27934,-5.30582 21.62587,-9.3464 22.51142,-5.56445 44.61335,-8.27391 67.50502,-8.2754 13.24997,-8.7e-4 16.4105,0.67109 18.99609,4.03871 2.09353,2.72676 1.56959,7.75613 -1.06596,10.2321 -2.17436,2.0427 -3.4966,2.24635 -14.70968,2.26563 -23.23745,0.0399 -49.51462,3.44918 -71.20837,9.23865 -12.40765,3.31128 -15.44603,3.66106 -18.13812,2.08808 z m 149.28398,-2.81323 c -22.78719,-5.72367 -22.54064,-5.63251 -24.10671,-8.91414 -1.8803,-3.9401 -0.43746,-8.89754 3.18065,-10.92834 2.47077,-1.3868 3.72867,-1.34652 12.35458,0.39565 16.92666,3.41865 30.07071,7.49132 32.04461,9.92899 4.09661,5.05908 0.18909,13.50284 -6.13589,13.25902 -1.5871,-0.0612 -9.38885,-1.74471 -17.33724,-3.74118 z M 294.52508,247.23508 c -3.4413,-1.66373 -5.00463,-6.32222 -3.41198,-10.16722 1.65134,-3.98667 2.2308,-4.26908 16.49979,-8.04156 49.21911,-13.01269 100.92126,-12.55764 148.64516,1.30828 9.55911,2.77734 12.38709,5.06738 12.38709,10.03079 0,3.66985 -4.07216,8.09962 -7.43695,8.09002 -1.30323,-0.004 -7.24692,-1.36181 -13.20821,-3.01801 -43.68228,-12.136 -89.01832,-12.30002 -134.95137,-0.48821 -14.90895,3.83388 -15.23773,3.87446 -18.52353,2.28591 z m -1.15666,-34.93053 c -3.13587,-2.92151 -3.76631,-6.40557 -1.83491,-10.14049 1.35031,-2.61121 2.85649,-3.52395 8.60013,-5.21167 17.50475,-5.1436 39.52405,-9.51039 48.68004,-9.65406 7.87412,-0.12356 11.91103,7.08689 7.27061,12.98624 -1.19024,1.51314 -3.55147,2.91742 -5.41935,3.22304 -1.82057,0.29786 -7.95527,1.2742 -13.63269,2.16966 -5.67742,0.89544 -16.47975,3.22384 -24.00517,5.17422 -16.01392,4.15036 -16.70835,4.20169 -19.65866,1.45306 z m 157.72834,-0.13456 c -17.10691,-5.08293 -36.68549,-8.31651 -58.77282,-9.70685 -10.41302,-0.65549 -12.08674,-1.02477 -14.19355,-3.13159 -3.26783,-3.26782 -3.14479,-8.01335 0.29697,-11.45513 3.72295,-4.7378 10.20888,-2.28324 15.65271,-1.99222 29.14301,1.55798 68.34932,9.72767 72.75862,15.16123 2.5931,3.19546 2.28301,7.80821 -0.72727,10.81848 -3.01162,3.01162 -5.72302,3.06689 -15.01466,0.30608 z M 294.07084,179.29394 c -2.87532,-1.68004 -4.43202,-6.79588 -3.06912,-10.0862 1.64657,-3.97517 3.47401,-4.89085 16.80608,-8.42112 27.16184,-7.19234 52.44987,-9.98503 81.35348,-8.98428 10.50322,0.36365 20.40251,0.95271 21.99842,1.309 5.68746,1.26976 8.26042,9.80881 4.1839,13.88534 -2.41872,2.41873 -3.13968,2.45975 -25.66619,1.46054 -26.33778,-1.16826 -49.08696,1.30967 -76.76186,8.36119 -14.83131,3.77899 -16.28668,3.97018 -18.84471,2.47553 z m 154.13855,-1.98538 c -10.15264,-3.0758 -12.50951,-4.8933 -12.56368,-9.68846 -0.0449,-3.97331 1.65004,-6.80587 4.78579,-7.99808 3.64931,-1.38747 22.65144,3.70836 25.89106,6.94324 3.13922,3.13464 3.04826,7.97474 -0.21114,11.23413 -3.22521,3.22522 -5.87594,3.15254 -17.90203,-0.49083 z M 293.20656,143.37593 c -3.54136,-3.54137 -3.81765,-5.19371 -1.58905,-9.50335 1.25163,-2.42037 2.90425,-3.40246 8.51613,-5.0608 16.37704,-4.83946 16.4647,-4.85073 19.59591,-2.51948 3.91043,2.91138 5.04043,6.47957 3.24792,10.25591 -1.196,2.51966 -2.85667,3.4779 -10.18157,5.87502 -13.95161,4.56576 -15.88237,4.65966 -19.58934,0.9527 z m 158.40633,0.72006 c -10.32962,-3.30941 -35.32955,-7.98506 -49.54839,-9.26684 -8.57925,-0.77339 -21.11819,-0.96319 -34.76465,-0.52622 -21.15477,0.67739 -21.36439,0.66301 -23.48387,-1.61199 -2.27896,-2.44618 -2.78871,-7.02067 -1.12811,-10.12355 0.55576,-1.03845 2.52995,-2.44439 4.3871,-3.12433 5.1348,-1.87994 43.39587,-2.60175 58.1195,-1.09645 26.31,2.68985 56.68777,9.71043 61.09751,14.12015 3.16977,3.16978 3.09246,7.99511 -0.18056,11.26812 -3.02359,3.0236 -5.95989,3.09673 -14.49853,0.36111 z"
         id="path953"
         sodipodi:nodetypes="ssssssssssssssssssssssssssssssssssssssssssssssscsssssssssssssssccsssssssssssssssssssssssssssssssssss" />
      <path
         style="fill:#97470c;fill-opacity:1;stroke-width:1"
         d="M 20.129304,452.55389 C -0.44158358,452.95284 0.53068899,447.5747 0.29188252,434.57848 L 0.23942835,294.91376 C 0.20259792,196.84889 0.31004656,149.26734 1.0515184,145.75248 3.5594184,133.86406 12.965834,126.50625 26.570124,125.7915 l 7.473351,-0.39264 0.268585,146.66437 -0.20378,147.16444 c 1.325505,1.62337 2.038696,2.71597 3.756623,3.86015 l 224.615327,0.6266 c 122.75807,0.34246 224.87229,-1.00218 226.13399,-1.30744 1.26171,-0.30531 2.59309,-0.52922 3.74429,-1.76488 2.08223,-2.235 2.09309,-3.00695 2.09309,-148.74548 V 125.3978 l 7.48387,0.39316 c 13.61544,0.7153 23.02038,8.06913 25.52912,19.96152 0.74147,3.51486 1.00053,51.09658 0.81209,149.16128 0.12769,43.3765 1.25984,96.51331 -0.0747,142.3273 -3.0268,5.65109 -7.00307,12.93447 -25.53057,14.97787 -18.5275,2.0434 -135.56343,-2.34793 -206.75328,-3.41124 -0.24369,9.89408 -70.51322,8.22504 -67.31723,0.0799 -137.667982,4.52963 -187.900759,3.26736 -208.471646,3.6663 z"
         id="path955"
         sodipodi:nodetypes="zcsssccccsssscsscczccz" />
      <path
         style="fill:#a30d0d;stroke-width:1;fill-opacity:1"
         d="m 214.91612,234.83635 c -0.94088,-0.94089 -1.23871,-19.41063 -1.23871,-76.8188 0,-41.56905 0.28195,-76.314853 0.62657,-77.212901 0.96572,-2.516621 4.99816,-1.992622 18.47971,2.401358 18.74612,6.109838 28.64035,10.554253 30.15356,13.544752 0.99225,1.960945 1.29388,17.975151 1.30559,69.315081 0.0135,59.33231 -0.16537,66.94556 -1.60691,68.3871 -0.89216,0.89217 -1.99382,1.62212 -2.44813,1.62212 -0.45431,0 -5.49715,-3.04879 -11.20632,-6.77508 l -10.3803,-6.77509 -10.13142,6.77509 c -5.57228,3.72629 -10.62272,6.77508 -11.22318,6.77508 -0.60046,0 -1.64917,-0.55742 -2.33046,-1.23871 z"
         id="path957" />
    </g>
  </g>
</svg>
