<?xml version="1.0" encoding="UTF-8" standalone="no"?>
<svg
   xmlns:dc="http://purl.org/dc/elements/1.1/"
   xmlns:cc="http://creativecommons.org/ns#"
   xmlns:rdf="http://www.w3.org/1999/02/22-rdf-syntax-ns#"
   xmlns:svg="http://www.w3.org/2000/svg"
   xmlns="http://www.w3.org/2000/svg"
   width="270.55554mm"
   height="314.39835mm"
   viewBox="0 0 270.55555 314.39835"
   version="1.1"
   id="svg942">
  <defs
     id="defs936" />
  <metadata
     id="metadata939">
    <rdf:RDF>
      <cc:Work
         rdf:about="">
        <dc:format>image/svg+xml</dc:format>
        <dc:type
           rdf:resource="http://purl.org/dc/dcmitype/StillImage" />
        <dc:title></dc:title>
      </cc:Work>
    </rdf:RDF>
  </metadata>
  <g
     id="layer1"
     transform="translate(12.945582,-15.185598)">
    <path
       style="fill:#1c51f9;fill-opacity:1;stroke:#001147;stroke-width:10.665;stroke-miterlimit:3.9;stroke-dasharray:none;stroke-opacity:1"
       id="path1535"
       d="M 162.03127,143.20769 106.74261,138.02792 62.007131,179.0491 49.84825,124.86582 -2.989239,94.996099 44.784819,66.688763 56.864934,7.2070724 98.549806,43.895454 158.85322,37.003472 136.84183,87.985475 Z"
       transform="rotate(65.547484,76.612542,98.913172)" />
    <path
       style="fill:#1c51f9;fill-opacity:1;stroke:#001147;stroke-width:14.883;stroke-miterlimit:3.9;stroke-dasharray:none;stroke-opacity:1"
       id="path1541"
       d="M 162.03127,143.20769 106.74261,138.02792 62.007131,179.0491 49.84825,124.86582 -2.989239,94.996099 44.784819,66.688763 56.864934,7.2070724 98.549806,43.895454 158.85322,37.003472 136.84183,87.985475 Z"
       transform="matrix(0.36256775,0.61783526,-0.61862965,0.36210217,213.1049,136.97931)" />
    <path
       style="fill:#1c51f9;fill-opacity:1;stroke:#001147;stroke-width:16.6623;stroke-miterlimit:3.9;stroke-dasharray:none;stroke-opacity:1"
       id="path1515"
       d="M 162.03127,143.20769 106.74261,138.02792 62.007131,179.0491 49.84825,124.86582 -2.989239,94.996099 44.784819,66.688763 56.864934,7.2070724 98.549806,43.895454 158.85322,37.003472 136.84183,87.985475 Z"
       transform="matrix(0.36358004,0.5268691,-0.52665286,0.36363511,76.602337,181.4942)" />
    <path
       id="path1537"
       style="fill:#f4f5ff;fill-opacity:1;stroke:none;stroke-width:10.665;stroke-miterlimit:3.9;stroke-dasharray:none;stroke-opacity:1"
       d="M 45.261826,37.274485 C 47.227992,24.829873 92.771838,56.601306 92.771838,56.601306 L 151.91873,42.976101 135.77612,96.108784 c 0,0 34.5327,53.512406 17.732,51.015456 -23.64229,-34.31522 -9.69573,-14.54042 -33.51246,-49.225577 12.59788,-31.649604 7.63772,-18.874569 16.04462,-41.178125 -34.18531,5.743984 -44.861381,8.759359 -44.861381,8.759359" />
    <path
       id="path1543"
       style="fill:#f4f5ff;fill-opacity:1;stroke:none;stroke-width:10.665;stroke-miterlimit:3.9;stroke-dasharray:none;stroke-opacity:1"
       d="m 152.29073,180.11847 c 0.48176,-9.00963 35.79605,8.67862 35.79605,8.67862 l 41.177,-14.07493 -7.58293,39.03933 c 0,0 29.95911,34.49713 17.79177,33.95972 -19.40057,-22.69632 -7.41312,-9.61895 -26.96548,-32.5659 6.02864,-23.38042 2.38414,-9.12757 6.60662,-26.33989 -23.95684,6.61699 -32.15859,11.04918 -32.15859,11.04918" />
    <path
       id="path1513"
       style="fill:#f4f5ff;fill-opacity:1;stroke:none;stroke-width:10.665;stroke-miterlimit:3.9;stroke-dasharray:none;stroke-opacity:1"
       d="m 27.779843,225.70389 c -0.167307,-8.06381 29.983533,3.63641 29.983533,3.63641 l 35.718294,-15.26499 -4.166254,35.30365 c 0,0 27.622934,29.46538 16.757864,29.78921 -18.769096,-18.95333 -7.575243,-7.71254 -26.496006,-26.8793 3.366775,-20.6533 2.056308,-10.834 4.096305,-24.47354 -20.884944,7.47992 -25.582466,9.99362 -25.582466,9.99362" />
    <path
       style="fill:none;fill-opacity:1;stroke:#051442;stroke-width:10.665;stroke-miterlimit:3.9;stroke-dasharray:none;stroke-opacity:1"
       id="path1539"
       d="M 162.03127,143.20769 106.74261,138.02792 62.007131,179.0491 49.84825,124.86582 -2.989239,94.996099 44.784819,66.688763 56.864934,7.2070724 98.549806,43.895454 158.85322,37.003472 136.84183,87.985475 Z"
       transform="rotate(65.547484,76.612542,98.913172)" />
    <path
       style="fill:none;fill-opacity:1;stroke:#051442;stroke-width:14.883;stroke-miterlimit:3.9;stroke-dasharray:none;stroke-opacity:1"
       id="path1545"
       d="M 162.03127,143.20769 106.74261,138.02792 62.007131,179.0491 49.84825,124.86582 -2.989239,94.996099 44.784819,66.688763 56.864934,7.2070724 98.549806,43.895454 158.85322,37.003472 136.84183,87.985475 Z"
       transform="matrix(0.36256775,0.61783526,-0.61862965,0.36210217,213.1049,136.97931)" />
    <path
       style="fill:none;fill-opacity:1;stroke:#051442;stroke-width:16.6623;stroke-miterlimit:3.9;stroke-dasharray:none;stroke-opacity:1"
       id="path1509"
       d="M 162.03127,143.20769 106.74261,138.02792 62.007131,179.0491 49.84825,124.86582 -2.989239,94.996099 44.784819,66.688763 56.864934,7.2070724 98.549806,43.895454 158.85322,37.003472 136.84183,87.985475 Z"
       transform="matrix(0.36358004,0.5268691,-0.52665286,0.36363511,76.602337,181.4942)" />
  </g>
</svg>
