<?xml version="1.0" encoding="UTF-8" standalone="no"?>
<svg
   xmlns:dc="http://purl.org/dc/elements/1.1/"
   xmlns:cc="http://creativecommons.org/ns#"
   xmlns:rdf="http://www.w3.org/1999/02/22-rdf-syntax-ns#"
   xmlns:svg="http://www.w3.org/2000/svg"
   xmlns="http://www.w3.org/2000/svg"
   version="1.1"
   id="svg867"
   width="419.58301"
   height="652.90302"
   viewBox="0 0 419.58301 652.90302">
  <metadata
     id="metadata873">
    <rdf:RDF>
      <cc:Work
         rdf:about="">
        <dc:format>image/svg+xml</dc:format>
        <dc:type
           rdf:resource="http://purl.org/dc/dcmitype/StillImage" />
        <dc:title></dc:title>
      </cc:Work>
    </rdf:RDF>
  </metadata>
  <defs
     id="defs871" />
  <g
     id="g875"
     transform="translate(-82.003352,27.013473)">
    <path
       style="fill:#ffffff;fill-opacity:1;stroke-width:1"
       d="m 300.18864,366.97412 c 44.16258,-37.16517 46.762,-39.18237 50.34945,-39.07225 5.0547,0.15515 8.08877,3.99543 13.44545,17.01815 2.4292,5.90562 4.79371,10.76719 5.25447,10.8035 0.46079,0.0363 18.00766,-6.14304 38.99309,-13.7319 20.9854,-7.58884 39.5673,-13.75878 41.2931,-13.71097 1.9393,0.0537 4.3882,1.55624 6.4114,3.93365 6.3725,7.48826 12.9201,1.0884 -95.5769,93.41881 -60.50791,51.49193 -99.83229,85.63567 -104.48,90.71568 -14.27772,15.60575 -24.14711,34.81532 -30.14103,58.66571 -5.77166,22.96597 -8.76429,28.66374 -20.13925,38.34378 -17.78432,15.13435 -42.02534,16.68451 -62.12242,3.97258 -12.408,-7.84838 -19.99635,-19.1967 -22.95238,-34.32507 l -1.4398,-7.3686 -5.92505,-1.87588 c -3.25878,-1.03173 -7.75227,-2.95886 -9.98551,-4.28244 -31.447491,-15.04637 -11.748241,-81.62071 0.35462,-89.95807 9.26664,-5.19329 15.31481,-6.67535 33.31277,-8.163 30.3896,-2.51192 49.13107,-9.73127 72.85305,-28.06352 m 74.80995,-139.02826 c 0.54544,-6.42865 4.16034,-8.31644 16.96865,-8.86149 12.30666,-0.52368 16.78979,1.9913 16.81235,9.43152 0.0221,7.3056 -3.84582,9.73502 -16.17154,10.1572 -9.3273,0.31947 -11.53866,-0.12084 -14.5016,-2.88752 -2.63959,-2.46477 -3.40096,-4.38533 -3.10786,-7.83971 z M 388.90411,187.28523 c 7.55819,11.87201 9.62429,16.14785 8.69819,20.63231 -0.9164,4.43703 -4.4332,6.32453 -18.1827,9.75862 l -11.5536,2.88565 0.89196,5.37993 c 0.49057,2.95893 4.38525,21.24657 8.65481,40.63919 6.39745,29.05769 7.52602,35.9429 6.41653,39.14598 -1.80517,5.21149 -8.67805,8.05862 -13.06556,5.41248 -1.93851,-1.16912 -22.36891,-31.67966 -53.5268,-79.93621 C 285.30176,181.7428 264.46652,150.65274 260.35059,146.31824 245.56628,130.74877 228.17196,119.69547 205.07971,111.19614 184.66904,103.6838 174.56402,93.527751 168.685,74.617707 165.46621,64.264364 165.26503,62.209279 166.60078,53.326576 169.59849,33.39208 181.53985,18.624498 200.14922,11.838043 206.46282,9.5356064 212.93061,8.00976 216.68778,7.9363486 l 6.17017,-0.1205579 3.84763,-7.41568089 c 8.44823,-16.28258181 26.87828,-27.45665781 45.21463,-27.41345781 23.47197,0.0553 41.65654,12.865139 49.65001,34.975207 3.44351,9.524833 3.67351,11.540652 3.07523,26.951252 -1.51494,39.021185 3.67528,58.463703 24.01408,89.956709 5.78642,8.95981 10.96505,17.76575 11.50807,19.56878 m 108.2006,160.53675 c -1.3016,-3.59528 0.1722,-9.18959 2.9487,-11.19254 1.2767,-0.92102 6.8786,-2.59812 12.4486,-3.72686 11.6525,-2.36135 16.9841,-0.41355 17.7217,6.47437 0.7755,7.24091 -2.8919,10.47568 -14.7658,13.02417 -11.2692,2.41872 -16.2716,1.17061 -18.3532,-4.57914 z m -39.9668,-60.7255 c -0.1992,-1.78256 2.2435,-9.38211 5.4282,-16.88791 5.3938,-12.71195 6.0646,-13.72437 9.7925,-14.77766 5.3214,-1.50354 10.8048,0.84696 12.4972,5.3569 0.9483,2.52729 -0.1811,7.0633 -4.3038,17.28463 -3.0742,7.62199 -6.7056,14.84159 -8.0696,16.04357 -5.2131,4.59357 -14.5226,0.33484 -15.3445,-7.01953 z"
       id="path879" />
    <path
       style="fill:#001147;fill-opacity:1;stroke-width:1"
       d="m 221.4619,459.32699 c -26.97963,21.30559 -46.72473,28.47166 -89.6243,32.52724 -14.56558,1.37698 -22.32256,5.43936 -28.59846,14.97719 -7.911228,12.02311 -6.708914,28.4767 2.90654,39.77578 2.49561,2.93257 6.9658,5.64925 14.4888,8.80528 5.98382,2.51033 12.07156,5.9608 13.52829,7.6677 1.45661,1.70703 3.86073,7.90401 5.3422,13.77135 3.30205,13.07765 6.92361,18.71792 15.46406,24.08409 12.0158,7.54978 26.62987,6.47457 37.5702,-2.76419 7.52476,-6.35455 9.53373,-10.44422 14.01979,-28.54161 6.7886,-27.38617 19.11532,-50.31094 37.22905,-69.23726 5.51192,-5.75921 39.41166,-35.39205 82.09833,-71.76474 l 72.70969,-61.95489 -17.46107,6.22226 c -9.6036,3.42225 -18.69925,5.92666 -20.21252,5.56538 -3.89706,-0.93038 -6.87807,-4.87739 -10.32763,-13.6743 -1.64579,-4.19704 -3.51475,-8.24485 -4.15325,-8.99513 -0.95222,-1.11896 -8.38257,4.78143 -41.33676,32.82528 m -4.91622,-21.6423 c 44.16258,-37.16517 46.762,-39.18237 50.34945,-39.07225 5.0547,0.15515 8.08877,3.99543 13.44545,17.01815 2.4292,5.90562 4.79371,10.76719 5.25447,10.8035 0.46079,0.0363 18.00766,-6.14304 38.99305,-13.7319 20.98542,-7.58884 39.56734,-13.75878 41.29313,-13.71097 1.9393,0.0537 4.38823,1.55624 6.41139,3.93365 6.37247,7.48826 12.92016,1.0884 -95.57688,93.41881 -60.50791,51.49193 -99.83229,85.63567 -104.48,90.71568 -14.27772,15.60575 -24.14711,34.81532 -30.14103,58.66571 -5.77166,22.96597 -8.76429,28.66374 -20.13925,38.34378 -17.78432,15.13435 -42.02534,16.68451 -62.12242,3.97258 -12.408,-7.84838 -19.99635,-19.1967 -22.95238,-34.32507 l -1.4398,-7.3686 -5.92505,-1.87588 c -3.25878,-1.03173 -7.75227,-2.95886 -9.98551,-4.28244 -5.665074,-3.35747 -20.597538,-17.21342 -21.156436,-35.28038 -0.286428,-30.82191 3.901528,-44.3317 21.511056,-54.67769 9.26664,-5.19329 15.31481,-6.67535 33.31277,-8.163 30.3896,-2.51192 49.13107,-9.73127 72.85305,-28.06352 m 74.80995,-139.02826 c 0.54544,-6.42865 4.16034,-8.31644 16.96865,-8.86149 12.30666,-0.52368 16.78979,1.9913 16.81235,9.43152 0.0221,7.3056 -3.84582,9.73502 -16.17154,10.1572 -9.3273,0.31947 -11.53866,-0.12084 -14.5016,-2.88752 -2.63959,-2.46477 -3.40096,-4.38533 -3.10786,-7.83971 z M 344.20162,153.52715 C 340.98705,150.20673 323.82257,123.23287 318.82383,113.64612 308.89156,94.597727 303.16224,63.334511 304.6458,36.280758 305.79216,15.376144 300.94237,3.5901385 288.47196,-3.0250104 271.49248,-12.032074 253.07338,-6.1330581 243.41488,11.405249 c -7.08768,12.870121 -9.65063,14.59638 -24.15243,16.267713 -7.30087,0.841426 -13.36548,2.235958 -15.85563,3.645931 -19.01887,10.768873 -23.02875,35.685129 -8.22776,51.125042 3.97827,4.150018 7.0639,5.736165 32.79611,16.858707 18.60156,8.040378 36.99498,21.798658 51.0313,38.171418 3.13106,3.65223 20.58676,29.72614 38.79045,57.94198 18.20368,28.21586 33.63843,51.76531 34.29943,52.33211 0.661,0.5668 -0.58414,-7.14444 -2.76695,-17.1361 -3.84719,-17.61019 -3.88566,-18.29688 -1.2557,-22.41901 2.57814,-4.04087 3.26186,-4.37025 13.74648,-6.62216 l 11.03341,-2.36975 -1.77904,-2.68498 m 17.82956,-9.23092 c 7.55823,11.87201 9.62433,16.14785 8.69815,20.63231 -0.91637,4.43703 -4.4332,6.32453 -18.18266,9.75862 l -11.5536,2.88565 0.89196,5.37993 c 0.49057,2.95893 4.38525,21.24657 8.65481,40.63919 6.39745,29.05769 7.52602,35.9429 6.41653,39.14598 -1.80517,5.21149 -8.67805,8.05862 -13.06556,5.41248 -1.93851,-1.16912 -22.36891,-31.67966 -53.5268,-79.93621 C 285.30176,181.7428 264.46652,150.65274 260.35059,146.31824 245.56628,130.74877 228.17196,119.69547 205.07971,111.19614 184.66904,103.6838 174.56402,93.527751 168.685,74.617707 165.46621,64.264364 165.26503,62.209279 166.60078,53.326576 169.59849,33.39208 181.53985,18.624498 200.14922,11.838043 206.46282,9.5356064 212.93061,8.00976 216.68778,7.9363486 l 6.17017,-0.1205579 3.84763,-7.41568089 c 8.44823,-16.28258181 26.87828,-27.45665781 45.21463,-27.41345781 23.47197,0.0553 41.65654,12.865139 49.65001,34.975207 3.44351,9.524833 3.67351,11.540652 3.07523,26.951252 -1.51494,39.021185 3.67528,58.463703 24.01408,89.956709 5.78642,8.95981 10.96505,17.76575 11.50807,19.56878 m 108.20059,160.53675 c -1.3016,-3.59528 0.17225,-9.18959 2.94871,-11.19254 1.27673,-0.92102 6.87858,-2.59812 12.44857,-3.72686 11.65253,-2.36135 16.98413,-0.41355 17.72174,6.47437 0.77544,7.24091 -2.89192,10.47568 -14.76581,13.02417 -11.26922,2.41872 -16.27165,1.17061 -18.35321,-4.57914 z m -39.96678,-60.7255 c -0.19921,-1.78256 2.24348,-9.38211 5.42823,-16.88791 5.39372,-12.71195 6.0646,-13.72437 9.79248,-14.77766 5.32135,-1.50354 10.8048,0.84696 12.49717,5.3569 0.94834,2.52729 -0.18109,7.0633 -4.30377,17.28463 -3.07424,7.62199 -6.70558,14.84159 -8.06967,16.04357 -5.21308,4.59357 -14.52252,0.33484 -15.34444,-7.01953 z"
       id="path881" />
  </g>
</svg>
