<?xml version="1.0" encoding="UTF-8" standalone="no"?>
<svg
   xmlns:dc="http://purl.org/dc/elements/1.1/"
   xmlns:cc="http://creativecommons.org/ns#"
   xmlns:rdf="http://www.w3.org/1999/02/22-rdf-syntax-ns#"
   xmlns:svg="http://www.w3.org/2000/svg"
   xmlns="http://www.w3.org/2000/svg"
   width="136.13812mm"
   height="128.18663mm"
   viewBox="0 0 136.13812 128.18663"
   version="1.1"
   id="svg8">
  <defs
     id="defs2" />
  <metadata
     id="metadata5">
    <rdf:RDF>
      <cc:Work
         rdf:about="">
        <dc:format>image/svg+xml</dc:format>
        <dc:type
           rdf:resource="http://purl.org/dc/dcmitype/StillImage" />
        <dc:title></dc:title>
      </cc:Work>
    </rdf:RDF>
  </metadata>
  <g
     id="layer1"
     transform="translate(-74.808615,-128.30843)">
    <path
       id="path865"
       style="fill:#001147;fill-opacity:1;stroke:#001147;stroke-width:4.5;stroke-miterlimit:4;stroke-dasharray:none;stroke-opacity:1"
       d="m 172.33827,131.34837 c -0.042,-0.042 -4.65722,8.01707 -10.2557,17.90847 -5.59848,9.89141 -10.23507,17.92807 -10.30377,17.85937 -0.0687,-0.0687 -1.16678,-5.66509 -2.44016,-12.43593 -1.27339,-6.77084 -2.35657,-12.35131 -2.40657,-12.40131 -0.05,-0.05 -1.18787,5.53716 -2.52904,12.41629 -1.34117,6.87915 -2.55284,12.3924 -2.69234,12.25145 -0.13951,-0.14096 -4.72129,-8.35256 -10.18181,-18.24798 -5.46053,-9.89541 -9.84526,-17.67433 -9.74359,-17.28628 0.10167,0.38806 2.48669,9.04027 5.29993,19.22673 2.81325,10.18646 5.22515,18.97207 5.35988,19.52387 0.22782,0.93308 -0.0973,0.76796 -4.65191,-2.36006 -13.42681,-9.22121 -16.44611,-11.23256 -16.18041,-10.77867 0.15897,0.27156 3.37301,5.06895 7.14272,10.66085 3.76972,5.59189 6.79918,10.21217 6.73189,10.26707 -0.0673,0.0549 -9.00944,-2.48551 -19.87166,-5.64565 -10.862209,-3.16013 -19.782779,-5.71282 -19.823078,-5.67252 -0.04033,0.0403 6.157759,3.60179 13.773319,7.91425 l 13.846699,7.84086 H 124.29159 135.17 l 1.44746,-1.16737 c 3.52066,-2.83881 6.75389,-3.97634 10.42571,-3.66851 5.8545,0.49082 10.60591,3.99384 12.77907,9.42165 0.60992,1.52339 0.7767,2.66037 0.7767,5.29167 0,2.6313 -0.16678,3.76827 -0.7767,5.29166 -2.15454,5.38131 -6.85121,8.87776 -12.65349,9.41958 -3.31447,0.30951 -6.23679,-0.59441 -9.50588,-2.93987 l -2.63912,-1.89343 h -11.1497 -11.14971 l -13.662731,7.49671 c -7.51428,4.12308 -13.626766,7.53498 -13.583668,7.58248 0.04311,0.0475 8.954465,-2.37313 19.802929,-5.37952 10.84846,-3.00638 19.84542,-5.46633 19.99361,-5.46633 0.14819,0 -1.22953,2.18297 -3.06183,4.85087 -9.1797,13.36589 -11.2001,16.39935 -10.74663,16.13389 0.27155,-0.15897 5.06896,-3.37351 10.66085,-7.14323 5.5919,-3.76972 10.21165,-6.79919 10.26655,-6.73189 0.0549,0.0673 -2.48551,9.00944 -5.64565,19.87166 -3.16014,10.86222 -5.71142,19.78428 -5.66942,19.82618 0.042,0.042 4.65671,-8.01707 10.25519,-17.90847 5.59848,-9.89141 10.23558,-17.92808 10.30428,-17.85938 0.0687,0.0687 1.16678,5.6651 2.44016,12.43594 1.2734,6.77084 2.35606,12.35131 2.40606,12.40131 0.05,0.05 1.18665,-5.52973 2.52594,-12.39924 1.33929,-6.86952 2.52923,-12.43159 2.64428,-12.36049 0.11506,0.0711 4.64534,8.21694 10.06709,18.10225 5.42174,9.8853 9.89659,17.93942 9.94409,17.89762 0.0475,-0.0418 -2.37387,-8.95288 -5.38055,-19.80241 -3.00668,-10.84954 -5.42676,-19.8277 -5.37796,-19.95124 0.0488,-0.12353 2.07308,1.15095 4.49843,2.83187 10.81122,7.49284 16.67179,11.40223 16.40003,10.94094 -0.16163,-0.27439 -3.37826,-5.07289 -7.14788,-10.66395 -3.76963,-5.59105 -6.79792,-10.21128 -6.72982,-10.26708 0.0681,-0.0558 9.01098,2.48396 19.8732,5.6441 10.86221,3.16013 19.78258,5.71251 19.82309,5.67201 0.0405,-0.0405 -8.01831,-4.65548 -17.90796,-10.25571 -9.88966,-5.60023 -17.92529,-10.23836 -17.85679,-10.30686 0.0685,-0.0685 5.66459,-1.16626 12.43542,-2.43965 6.77084,-1.27339 12.35131,-2.35605 12.40131,-2.40605 0.05,-0.05 -5.52922,-1.18665 -12.39873,-2.52594 -6.86952,-1.33929 -12.43317,-2.52783 -12.36307,-2.64119 0.0701,-0.11336 8.21604,-4.64363 18.10174,-10.06708 9.88571,-5.42344 17.93865,-9.90142 17.89555,-9.95082 -0.0432,-0.0494 -8.95057,2.37166 -19.79414,5.38004 -10.84357,3.00837 -19.83942,5.46995 -19.99051,5.46995 -0.15109,0 1.22487,-2.18298 3.05717,-4.85087 9.1797,-13.36589 11.2001,-16.39936 10.74664,-16.1339 -0.27155,0.15897 -5.06896,3.37352 -10.66085,7.14324 -5.5919,3.76971 -10.21218,6.79918 -10.26708,6.73188 -0.0549,-0.0673 2.48603,-9.00943 5.64617,-19.87165 3.16014,-10.86222 5.71142,-19.78428 5.66942,-19.82618 z m -26.33586,51.7989 c -0.62671,0.0167 -1.25715,0.10889 -1.88154,0.28371 -0.84656,0.23703 -2.31757,1.05194 -3.26853,1.81126 -0.95097,0.75931 -2.36375,1.69432 -3.13986,2.07791 -1.38686,0.68549 -2.34048,0.69738 -55.474651,0.70538 -5.20891,1.82206 -6.285571,5.41338 -0.07648,8.47442 59.929801,0 54.980391,-0.20821 58.129781,2.44739 0.92559,0.78047 2.31164,1.65872 3.07992,1.95182 2.10873,0.80449 5.14042,0.48224 7.14995,-0.76016 3.20494,-1.98147 4.90711,-5.27754 4.54598,-8.80308 -0.48452,-4.73014 -4.6776,-8.30554 -9.06457,-8.18865 z" />
    <path
       style="fill:#da008b;fill-opacity:1;stroke-width:1"
       d="m 161.72786,235.59754 c -5.42175,-9.88531 -9.95186,-18.03146 -10.06692,-18.10257 -0.11505,-0.0711 -1.30497,5.49123 -2.64426,12.36074 -1.33929,6.86952 -2.476,12.4491 -2.52602,12.39908 -0.05,-0.05 -1.13281,-5.63073 -2.40621,-12.40157 -1.27338,-6.77084 -2.37147,-12.36684 -2.4402,-12.43557 -0.0687,-0.0687 -4.70553,7.96801 -10.30401,17.85942 -5.59848,9.8914 -10.21338,17.95004 -10.25534,17.90808 -0.042,-0.0419 2.50928,-8.96355 5.66942,-19.82577 3.16014,-10.86222 5.70076,-19.80451 5.64583,-19.87176 -0.0549,-0.0673 -4.67505,2.96204 -10.26695,6.73176 -5.59189,3.76972 -10.38926,6.98409 -10.66081,7.14306 -0.45347,0.26546 1.56705,-2.7679 10.74675,-16.13379 1.8323,-2.66789 3.21021,-4.8507 3.06202,-4.8507 -0.14819,0 -9.14544,2.45977 -19.9939,5.46615 -10.848457,3.00639 -19.759737,5.42733 -19.802847,5.37987 -0.0431,-0.0475 6.06967,-3.45973 13.58395,-7.58282 l 13.662317,-7.49653 h 11.14976 11.14976 l 2.63912,1.89348 c 3.26909,2.34546 6.19151,3.24922 9.50598,2.93971 5.80228,-0.54182 10.49883,-4.03799 12.65337,-9.4193 0.60992,-1.52339 0.77684,-2.66037 0.77684,-5.29167 0,-2.6313 -0.16692,-3.76828 -0.77684,-5.29167 -2.17316,-5.42781 -6.92464,-8.93099 -12.77913,-9.42181 -3.67183,-0.30783 -6.90464,0.82978 -10.4253,3.66859 l -1.44745,1.16711 H 124.2979 113.41901 l -13.846477,-7.84084 c -7.61556,-4.31246 -13.81348,-7.87384 -13.77315,-7.91417 0.0403,-0.0403 8.9606,2.51224 19.822807,5.67237 10.86222,3.16014 19.80451,5.70076 19.87176,5.64584 0.0673,-0.0549 -2.96204,-4.67506 -6.73176,-10.26695 -3.76971,-5.5919 -6.98409,-10.38926 -7.14306,-10.66082 -0.2657,-0.45389 2.75355,1.5574 16.18036,10.77861 4.55464,3.12802 4.88011,3.29313 4.65229,2.36006 -0.13473,-0.5518 -2.54671,-9.33764 -5.35996,-19.5241 -2.81324,-10.18646 -5.19817,-18.83833 -5.29984,-19.22639 -0.10167,-0.38805 4.28285,7.3907 9.74338,17.28611 5.46052,9.89542 10.04237,18.10699 10.18188,18.24795 0.13951,0.14095 1.35098,-5.37211 2.69215,-12.25126 1.34117,-6.87914 2.47942,-12.4666 2.52944,-12.41658 0.05,0.05 1.13281,5.63073 2.4062,12.40157 1.27338,6.77084 2.37147,12.36684 2.4402,12.43557 0.0687,0.0687 4.70553,-7.96801 10.30401,-17.85942 5.59848,-9.8914 10.21338,-17.95004 10.25534,-17.90808 0.042,0.0419 -2.50928,8.96355 -5.66942,19.82577 -3.16014,10.86222 -5.70076,19.80451 -5.64583,19.87176 0.0549,0.0673 4.67505,-2.96204 10.26695,-6.73176 5.59189,-3.76972 10.38926,-6.98409 10.66081,-7.14306 0.45347,-0.26546 -1.56705,2.7679 -10.74675,16.13379 -1.8323,2.66789 -3.20783,4.8507 -3.05674,4.8507 0.15109,0 9.14672,-2.46139 19.99029,-5.46976 10.84357,-3.00838 19.75089,-5.42931 19.79404,-5.37986 0.0431,0.0494 -8.00986,4.52726 -17.89557,9.9507 -9.8857,5.42345 -18.03133,9.95355 -18.10139,10.06691 -0.0701,0.11336 5.49313,1.30189 12.36265,2.64118 6.86951,1.33929 12.4491,2.476 12.39907,2.52603 -0.05,0.05 -5.63073,1.13281 -12.40157,2.4062 -6.77083,1.27338 -12.36662,2.37125 -12.43508,2.43971 -0.0685,0.0685 7.96707,4.70647 17.85673,10.3067 9.88965,5.60023 17.94807,10.21535 17.90759,10.25583 -0.0405,0.0405 -8.96086,-2.51198 -19.82307,-5.67211 -10.86222,-3.16014 -19.8052,-5.70008 -19.87329,-5.64431 -0.0681,0.0558 2.96045,4.67589 6.73008,10.26694 3.76962,5.59106 6.98611,10.39005 7.14775,10.66443 0.27176,0.46129 -5.58864,-3.44855 -16.39986,-10.94139 -2.42535,-1.68092 -4.44966,-2.95514 -4.49846,-2.83161 -0.0488,0.12354 2.37127,9.1015 5.37796,19.95104 3.00668,10.84953 5.42786,19.76063 5.3804,19.80244 -0.0475,0.0418 -4.52227,-8.01196 -9.94401,-17.89726 z"
       id="path871" />
    <path
       style="fill:#d6e60f;fill-opacity:1;stroke-width:1"
       d="m 143.37759,200.89937 c -0.76828,-0.2931 -2.15417,-1.17148 -3.07976,-1.95195 -3.14939,-2.6556 1.79971,-2.44725 -58.130087,-2.44725 -6.209093,-3.06104 -5.132009,-6.6526 0.07686,-8.47466 53.134167,-0.008 54.087437,-0.0197 55.474297,-0.70519 0.77611,-0.38359 2.18918,-1.31869 3.14015,-2.078 0.95096,-0.75932 2.42167,-1.5745 3.26823,-1.81153 4.99507,-1.39852 10.39244,2.49947 10.94617,7.90535 0.36113,3.52554 -1.34076,6.8212 -4.5457,8.80267 -2.00953,1.2424 -5.04143,1.56479 -7.15016,0.7603 z"
       id="path873" />
  </g>
</svg>
