<?xml version="1.0" encoding="UTF-8" standalone="no"?>
<svg
   xmlns:dc="http://purl.org/dc/elements/1.1/"
   xmlns:cc="http://creativecommons.org/ns#"
   xmlns:rdf="http://www.w3.org/1999/02/22-rdf-syntax-ns#"
   xmlns:svg="http://www.w3.org/2000/svg"
   xmlns="http://www.w3.org/2000/svg"
   version="1.1"
   id="svg867"
   width="337.5824"
   height="438.34378"
   viewBox="0 0 337.5824 438.34378">
  <metadata
     id="metadata873">
    <rdf:RDF>
      <cc:Work
         rdf:about="">
        <dc:format>image/svg+xml</dc:format>
        <dc:type
           rdf:resource="http://purl.org/dc/dcmitype/StillImage" />
        <dc:title></dc:title>
      </cc:Work>
    </rdf:RDF>
  </metadata>
  <defs
     id="defs871" />
  <g
     id="g875"
     transform="translate(-87.721343,-32.920845)">
    <path
       id="path879"
       style="fill:#ff99e1;fill-opacity:1;stroke:#001147;stroke-width:35.6;stroke-miterlimit:4;stroke-dasharray:none;stroke-opacity:1;paint-order:stroke fill markers"
       d="m 257.88867,50.722656 c -16.58543,-0.08258 -33.26871,2.641098 -49.89258,8.183594 -21.15172,7.05211 -34.58641,14.705608 -47.35937,26.980469 -17.62172,16.934531 -27.7389,38.222781 -30.125,63.384761 -0.55742,5.87818 -1.01396,20.1375 -1.01367,31.6875 v 21 l -5.25,-0.32421 c -12.43196,-0.7677 -18.75527,10.82225 -18.72657,34.32421 0.0244,19.93464 3.57934,35.4313 11.05079,48.16407 1.88281,3.20866 7.29359,9.70854 12.02343,14.44336 l 8.59961,8.60742 0.58985,14.89258 c 0.65311,16.5148 2.21369,24.08414 7.23242,35.0664 3.78619,8.28515 8.04351,14.8063 14.1582,21.6836 l 4.32031,4.85742 17.94532,20.25 c 0.51943,0.32102 5.55526,7.43466 11.1914,15.80859 15.76334,23.42047 23.87357,30.22384 38.94922,32.66992 9.73604,1.57971 44.06895,1.30596 52.19531,-0.41601 14.37874,-3.04686 21.9976,-9.83702 38.21875,-34.0625 l 10,-14.93555 17.5,-18.53906 6.50196,-7.7461 c 7.10663,-8.46564 14.57891,-22.31988 17.12109,-31.74414 1.02843,-3.81258 1.79953,-11.88801 2.11328,-22.15039 l 0.49414,-16.15039 4.49219,-3.34961 c 9.99636,-7.45401 20.98999,-24.43379 24.83008,-38.34961 2.21519,-8.02744 3.16618,-37.12358 1.49609,-45.75976 -2.38813,-12.34925 -8.37591,-18.31349 -17.64648,-17.57617 l -4.40235,0.34961 -0.0391,-14.00782 c -0.0573,-21.0851 -1.5828,-44.09514 -3.48242,-52.50586 C 374.55658,107.04255 355.53069,82.489124 329.49609,69.025391 306.16063,56.957513 282.12893,50.843355 257.88867,50.722656 Z" />
    <path
       style="fill:#fffeff;fill-opacity:1;stroke:none;stroke-width:1px;stroke-linecap:butt;stroke-linejoin:miter;stroke-opacity:1"
       d="m 367.25651,179.50572 c 0,0 -0.26467,-33.83016 -11.24542,-52.79758 -10.98075,-18.96742 -34.39463,-36.080008 -42.76408,-40.107137 -8.36945,-4.027129 -32.91254,-13.11099 -54.23262,-13.850872 -21.32009,-0.739882 -40.90451,2.645648 -56.09477,6.14893 -15.19026,3.503282 36.01719,-17.180395 36.01719,-17.180395 l 56.70636,3.455358 57.52061,25.601353 20.20865,46.484133 0.0283,21.78778 z"
       id="path920" />
    <path
       style="fill:#fffeff;fill-opacity:1;stroke:none;stroke-width:1px;stroke-linecap:butt;stroke-linejoin:miter;stroke-opacity:1"
       d="m 263.38264,262.25605 c 0,0 -2.90276,23.49667 1.97678,33.14794 5.89223,7.72795 8.8961,14.98238 2.17822,35.32733 6.80525,-4.69906 15.71097,-21.64607 7.59455,-30.23115 -6.32067,-6.68564 -11.74955,-38.24412 -11.74955,-38.24412 z"
       id="path930" />
    <path
       id="path914"
       style="fill:#c33ed6;fill-opacity:1"
       d="m 257.88867,50.722656 c -16.58543,-0.08258 -33.26871,2.641098 -49.89258,8.183594 -21.15172,7.05211 -34.58641,14.705608 -47.35937,26.980469 -17.62172,16.934531 -27.7389,38.222781 -30.125,63.384761 -0.55742,5.87818 -1.01396,20.1375 -1.01367,31.6875 v 21 l -5.25,-0.32421 c -12.43196,-0.7677 -18.75527,10.82225 -18.72657,34.32421 0.0244,19.93464 3.57934,35.4313 11.05079,48.16407 1.88281,3.20866 7.29359,9.70854 12.02343,14.44336 l 8.59961,8.60742 0.58985,14.89258 c 0.65311,16.5148 2.21369,24.08414 7.23242,35.0664 3.78619,8.28515 8.04351,14.8063 14.1582,21.6836 l 4.32031,4.85742 17.94532,20.25 c 0.51943,0.32102 5.55526,7.43466 11.1914,15.80859 15.76334,23.42047 23.87357,30.22384 38.94922,32.66992 9.73604,1.57971 44.06895,1.30596 52.19531,-0.41601 14.37874,-3.04686 21.9976,-9.83702 38.21875,-34.0625 l 10,-14.93555 17.5,-18.53906 6.50196,-7.7461 c 7.10663,-8.46564 14.57891,-22.31988 17.12109,-31.74414 1.02843,-3.81258 1.79953,-11.88801 2.11328,-22.15039 l 0.49414,-16.15039 4.49219,-3.34961 c 9.99636,-7.45401 20.98999,-24.43379 24.83008,-38.34961 2.21519,-8.02744 3.16618,-37.12358 1.49609,-45.75976 -2.38813,-12.34925 -8.37591,-18.31349 -17.64648,-17.57617 l -4.40235,0.34961 -0.0391,-14.00782 c -0.0573,-21.0851 -1.5828,-44.09514 -3.48242,-52.50586 C 374.55658,107.04255 355.53069,82.489124 329.49609,69.025391 306.16063,56.957513 282.12893,50.843355 257.88867,50.722656 Z m -1.69531,16.675782 c 18.52488,-0.01756 37.0281,3.904145 55.70508,11.779296 23.79141,10.031646 39.56367,25.194896 48.43164,46.560546 5.19255,12.51045 6.25194,20.39912 6.8789,51.2207 -0.6529,51.92709 2.54623,64.65969 18.9336,43.61914 l 2.77344,-2.38476 0.88086,2.88281 c 0.48457,1.58525 0.91292,9.40781 0.95312,17.38281 0.0831,16.48596 -1.24054,23.11921 -6.76562,33.91211 -1.85448,3.62262 -4.50716,7.93789 -5.89454,9.58789 l -2.52148,3 c -9.36919,-12.46458 -16.50851,11.96097 -16.64843,17 -0.0822,19.25174 -0.56232,32.77429 -1.26758,35.6836 -3.40859,14.0609 -8.29519,22.09991 -22.91796,37.70703 -13.57743,14.4914 -17.17907,19.03182 -28.19141,35.51562 -11.17393,16.72566 -16.26756,21.98696 -23.30274,24.07618 -3.93674,1.16909 -10.16337,1.49794 -27.17578,1.43164 -12.13768,-0.0473 -23.19566,-0.43027 -24.57422,-0.84961 -8.41686,-2.56029 -13.15829,-7.38674 -25.78711,-26.25586 -10.34208,-15.45242 -15.63476,-22.03786 -29.68554,-36.9336 -11.42481,-12.11187 -16.4942,-20.53967 -19.55664,-32.51367 -1.79306,-7.0108 -1.9951,-10.87897 -1.9043,-36.35351 -4.13093,-14.12303 -9.98992,-20.46299 -16.50981,-18.00782 -1.00999,0 -9.08273,-13.23139 -11.30469,-18.52734 -3.43312,-8.18274 -4.55719,-17.44172 -4.02344,-33.16406 0.26799,-7.89387 0.78216,-14.64739 1.14258,-15.00781 0.0451,-0.0451 0.10853,-0.0704 0.18945,-0.0762 0.56642,-0.0406 1.95412,0.84598 3.33399,2.16797 20.8764,25.55443 18.44633,-32.1663 18.96875,-56.39258 1.21425,-22.86754 3.0234,-31.26395 9.58593,-44.5 11.19772,-22.58478 31.87851,-38.227605 62.13672,-46.996089 12.75687,-3.696796 25.44227,-5.552441 38.11719,-5.564453 z m 0.1875,8.68164 c -2.47383,-0.02087 -4.62887,1.175221 -6.2832,3.53711 -1.23417,1.762028 -1.60157,4.826376 -1.60157,13.373046 0,11.435796 0.49605,13.122506 4.5,15.312496 3.17673,1.73753 6.17387,1.34069 9.14258,-1.21289 2.57595,-2.21574 2.78045,-2.98384 3.16992,-11.888668 0.52705,-12.050596 -0.74888,-16.399115 -5.375,-18.332031 -1.23816,-0.517337 -2.42826,-0.779578 -3.55273,-0.789063 z m -70.74414,29.378902 c -4.47111,0 -8.14063,3.80211 -8.14063,8.43555 0,2.97953 1.04729,4.63906 6.75,10.69336 3.7125,3.94138 8.1,7.75282 9.75,8.4707 5.54466,2.41236 11.5,-1.45174 11.5,-7.46093 0,-3.06697 -1.05246,-4.56224 -8.31445,-11.82422 -6.98818,-6.98818 -8.82911,-8.31446 -11.54492,-8.31446 z m 142.1289,0.0312 c -2.63357,-0.0259 -4.54295,1.2063 -10.32226,6.65821 -3.9,3.67906 -7.76184,7.98617 -8.58203,9.57226 -1.85691,3.59086 -0.98854,8.18823 1.93555,10.23633 1.17883,0.82568 3.67132,1.50195 5.5371,1.50195 2.87468,0 4.58729,-1.16395 11.22461,-7.62304 8.23503,-8.01388 9.99835,-11.51667 7.83985,-15.56836 -1.7956,-3.37048 -3.9842,-4.74145 -7.63282,-4.77735 z m -70.74804,21.04883 c -24.99295,-0.14381 -49.8966,11.93351 -75.23242,36.28516 -11.88178,11.42024 -17.28907,18.40205 -17.28907,22.32422 0,2.24456 1.60314,4.87894 6.33399,10.4082 20.72016,24.21703 46.59424,41.18778 70.66601,46.34961 28.64392,6.14227 61.57413,-6.67381 90.68164,-35.29102 17.81658,-17.51648 19.29024,-21.19903 12.11915,-30.3164 -6.10308,-7.75947 -19.06261,-20.13488 -28.5586,-27.27149 -19.78955,-14.87263 -39.28174,-22.37642 -58.7207,-22.48828 z m -0.69531,16.76758 c 5.72201,-0.0443 9.90904,1.85835 13.51562,6.14453 6.44113,7.65485 3.76125,20.36263 -5.26367,24.9668 -7.20334,3.67487 -15.29673,2.13426 -20.35156,-3.87305 -9.28692,-11.03688 -2.13887,-27.12799 12.09961,-27.23828 z m -32.8711,16.65234 0.0234,2.7129 c 0.0122,1.49186 0.93635,5.15745 2.05469,8.14648 5.70557,15.24951 23.03483,24.30122 38.79492,20.26367 12.99637,-3.32951 23.33468,-13.96525 24.89648,-25.60937 0.29619,-2.20826 0.87669,-4.01368 1.29102,-4.01368 1.31545,0 3.8241,4.58778 5.9375,10.86133 6.69912,19.88602 -3.11622,41.69005 -22.95313,50.98633 -7.58405,3.55416 -22.87093,4.16287 -30.80273,1.22656 -11.01133,-4.07634 -21.05575,-13.91492 -25.24805,-24.73047 -4.42286,-11.41032 -2.5208,-29.00332 4.03907,-37.34375 z m -23.14844,8.42383 -0.8789,3.78711 c -1.19185,5.13372 -1.15781,21.0008 0.0547,25.22852 0.54059,1.88494 0.8543,3.55585 0.69726,3.71289 -0.15704,0.15704 -3.95287,-3.41299 -8.43555,-7.9336 l -8.15039,-8.21875 4.07422,-4.34179 c 2.24046,-2.38732 5.99999,-6.1159 8.35547,-8.28711 z m 113.74415,1.26367 c 1.28784,0.19113 13.3789,11.81862 14.60546,14.10743 0.78886,1.47206 -0.33866,3.1375 -6.26562,9.25 -7.52955,7.76526 -9.55094,9.00251 -8.50391,5.20507 1.38868,-5.03657 1.76779,-16.61122 0.72657,-22.16992 -0.60986,-3.25562 -0.9044,-6.12294 -0.6543,-6.37304 0.0183,-0.0183 0.0502,-0.0257 0.0918,-0.0195 z m -116.11133,66.2461 c -3.11814,-0.0777 -7.58632,2.97778 -13.68946,9.33789 -5.81061,6.05527 -6.75,7.54005 -6.75,10.67578 0,2.53421 0.74745,4.39004 2.45508,6.09766 1.59319,1.5932 3.58826,2.45507 5.68555,2.45507 2.71581,0 4.55674,-1.32627 11.54492,-8.31445 7.26199,-7.26198 8.31445,-8.75919 8.31445,-11.82617 0,-3.58454 -2.52012,-6.86119 -6.30664,-8.20117 -0.39116,-0.13843 -0.80846,-0.21352 -1.2539,-0.22461 z m 117.98633,0.36523 c -2.93548,0 -4.4025,0.63556 -6.14063,2.65625 -2.63738,3.06615 -2.86641,5.54188 -0.86133,9.34375 1.57564,2.98762 11.93406,13.32459 15.07617,15.04492 5.39536,2.95399 11.90039,-1.01356 11.90039,-7.25781 0,-3.25888 -0.90758,-4.57751 -8.05859,-11.72851 -7.29207,-7.29208 -8.42453,-8.0586 -11.91601,-8.0586 z m -97.48047,117.76758 c -5.12111,0 -9.24414,4.12303 -9.24414,9.24414 v 1.06055 c 0,5.12111 4.12303,9.24414 9.24414,9.24414 h 76.0332 c 5.12111,0 9.24414,-4.12303 9.24414,-9.24414 v -1.06055 c 0,-5.12111 -4.12303,-9.24414 -9.24414,-9.24414 z" />
    <circle
       style="fill:#ffffff;fill-opacity:1;stroke-width:59.5841"
       id="path918"
       cx="256.78043"
       cy="159.70909"
       r="17.217117" />
  </g>
</svg>
