<?xml version="1.0" encoding="UTF-8" standalone="no"?>
<svg
   xmlns:dc="http://purl.org/dc/elements/1.1/"
   xmlns:cc="http://creativecommons.org/ns#"
   xmlns:rdf="http://www.w3.org/1999/02/22-rdf-syntax-ns#"
   xmlns:svg="http://www.w3.org/2000/svg"
   xmlns="http://www.w3.org/2000/svg"
   xmlns:sodipodi="http://sodipodi.sourceforge.net/DTD/sodipodi-0.dtd"
   xmlns:inkscape="http://www.inkscape.org/namespaces/inkscape"
   version="1.1"
   id="svg885"
   width="303.78516"
   height="281.24966"
   viewBox="0 0 303.78516 281.24967"
   sodipodi:docname="speed.svg"
   inkscape:version="1.0.2 (e86c870879, 2021-01-15)">
  <metadata
     id="metadata891">
    <rdf:RDF>
      <cc:Work
         rdf:about="">
        <dc:format>image/svg+xml</dc:format>
        <dc:type
           rdf:resource="http://purl.org/dc/dcmitype/StillImage" />
        <dc:title></dc:title>
      </cc:Work>
    </rdf:RDF>
  </metadata>
  <defs
     id="defs889" />
  <sodipodi:namedview
     pagecolor="#ffffff"
     bordercolor="#666666"
     borderopacity="1"
     objecttolerance="10"
     gridtolerance="10"
     guidetolerance="10"
     inkscape:pageopacity="0"
     inkscape:pageshadow="2"
     inkscape:window-width="1920"
     inkscape:window-height="1050"
     id="namedview887"
     showgrid="false"
     inkscape:zoom="0.50312594"
     inkscape:cx="-14.352158"
     inkscape:cy="156.42962"
     inkscape:window-x="0"
     inkscape:window-y="30"
     inkscape:window-maximized="1"
     inkscape:current-layer="g893" />
  <g
     inkscape:groupmode="layer"
     inkscape:label="Image"
     id="g893"
     transform="translate(-0.56368079,14.646206)">
    <path
       style="fill:#dfdfdf;fill-opacity:1;stroke:#000000;stroke-width:1px;stroke-linecap:butt;stroke-linejoin:miter;stroke-opacity:1"
       d="m 28.31982,96.038115 168.81703,164.146125 98.87725,-1.62855 0.47269,-25.62547 -98.05491,-2.69127 L 48.892729,78.472709"
       id="path934" />
    <path
       style="fill:#f48daf;fill-opacity:1;stroke:none;stroke-width:1px;stroke-linecap:butt;stroke-linejoin:miter;stroke-opacity:1"
       d="m 126.23461,47.565021 14.75271,41.394768 46.0726,23.915671 32.42287,-43.44055 23.20899,-36.717182 -67.24248,-40.6595106"
       id="path914"
       sodipodi:nodetypes="cccccc" />
    <path
       style="fill:#6ea7ff;fill-opacity:1;stroke:#000000;stroke-width:1px;stroke-linecap:butt;stroke-linejoin:miter;stroke-opacity:1"
       d="M 48.892729,78.472709 198.43188,230.23895 298.12258,231.0639 284.13762,211.9418 246.74219,201.37109 207.91633,117.01951 151.09475,95.573161 130.73111,68.851818 120.29056,29.356817 99.102147,32.929337 64.028407,65.573594"
       id="path912"
       sodipodi:nodetypes="ccccccccccc" />
    <path
       id="path897"
       style="fill:#001147;fill-opacity:1;stroke-width:0.999998"
       d="m 173.18977,-14.633049 c -1.29367,-0.737396 -27.72879,29.702247 -44.5214,45.867435 -5.06714,-9.263416 -12.04758,-9.563266 -21.61368,-9.400402 -0.63774,0.01086 -1.2745,0.05054 -1.91211,0.117188 -4.95439,0.517837 -10.837357,2.74287 -15.578127,5.894531 -2.59198,1.72314 -10.859855,9.341497 -22.140625,20.398438 -9.90221,9.705735 -23.846721,23.366553 -30.988281,30.359375 -7.14157,6.99282 -13.265575,13.240422 -13.609375,13.882812 -0.77727,1.4524 -0.811293,4.489266 -0.06445,5.884766 0.93409,1.745356 167.270218,166.269006 169.027338,167.185546 2.51178,1.31014 106.58049,1.43454 109.11655,0.12309 3.44088,-1.77935 3.63167,-2.90688 3.35547,-19.82617 -0.2275,-13.93646 -0.36751,-15.64914 -1.58593,-19.38476 -3.81832,-11.70684 -10.79005,-18.97337 -22.00586,-22.9375 -5.91606,-1.57554 -9.89433,-1.8147 -15.0521,-1.98052 l -20.875,-0.17969 -2.19531,-6.25781 c -11.76726,-33.54118 -32.04108,-83.30149 -35.00782,-85.92383 -1.11395,-0.98463 -2.29213,-1.37112 -3.89393,-1.48526 -2.62179,-0.18683 46.76979,-72.157528 49.16571,-76.232624 -3.04091,-2.159208 -7.78393,-4.896923 -11.73547,-7.247076 -22.4095,-13.327889 -44.98996,-26.3068656 -67.8856,-38.857539 z m 58.73705,50.897412 c -6.67239,10.151146 -32.15191,48.533397 -37.32108,56.07362 -5.16916,7.540223 -8.83314,12.478837 -9.48481,12.223547 -2.60666,-1.02116 -12.96401,-4.48687 -15.70101,-5.825202 -17.76395,-8.686184 -29.97595,-20.444718 -33.67969,-32.43164 -1.43859,-5.959376 -1.51251,-10.947711 -2.12568,-16.14547 1.74072,-1.662839 5.34644,-5.660785 9.86801,-10.839034 4.52157,-5.178249 9.95898,-11.536802 15.36306,-17.920854 5.40409,-6.384052 11.25177,-13.2806252 15.64002,-18.5608726 z M 106.75977,34.765625 c 6.05943,-0.262229 11.54059,4.332872 13.91406,11.828125 0.30875,0.975021 0.76568,5.987452 1.01562,11.138672 0.40786,8.406076 0.64197,9.866708 2.27539,14.269531 2.46694,6.649548 6.28523,12.580299 11.95899,18.574219 14.6415,15.467728 37.53951,26.698528 60.71484,29.775388 l 2.63477,0.34961 2.20117,5.09961 c 1.21071,2.80551 1.99814,7.62289 1.99414,7.83203 -30.88736,15.98825 -24.64895,20.02887 5.45313,9.95703 l 1.11914,2.53125 c 0.61574,1.39198 1.78,5.54356 1.9721,6.14881 -22.38227,14.20173 -14.6098,18.18501 4.60602,10.61682 l 2.99118,7.29612 c -17.09083,8.23281 -20.84405,13.79463 4.83695,12.99099 0.21967,0.54849 2.45692,6.82833 4.97265,13.95703 2.51572,7.1287 4.86732,13.51235 5.22656,14.18359 1.40094,2.61769 2.10535,2.13072 26.67579,3.01172 9.39786,0.33697 13.00299,0.48337 16.4017,1.8438 3.45348,1.38236 10.28321,7.17356 10.28321,8.71875 0,0.5413 -21.22289,0.55073 -37.0814,0.55073 h -47.5664 l -10.96876,-10.98047 -10.96874,-10.98046 c -9.5293,-9.6504 -0.66371,-0.6472 -9.5293,-9.6504 -7.28615,-8.23956 -16.86559,-16.81793 -23.98242,-23.8496 C 110.15762,132.7669 90.761824,112.37568 60.648438,82.265625 L 56.074219,77.529297 75.890625,58.226562 C 96.853055,37.806804 99.396088,35.8043 105.54102,34.882812 c 0.40835,-0.06124 0.81478,-0.09971 1.21875,-0.117187 z m -60.169926,51.855469 75.521486,75.847656 75.51953,75.84766 h 52.1875 l 41.70249,0.15239 v 7.60937 7.61133 l -41.79819,-0.15239 H 197.44141 L 125.18555,182.07227 C 85.445719,142.76722 49.509482,107.20664 45.326172,103.04883 l -7.605469,-7.558596 4.433594,-4.435546 z m -26.2996,52.698836 c -11.8341402,-0.002 -14.8326322,0.16285 -16.2324222,0.88672 -1.89204,0.9784 -3.49518801,3.57966 -3.49218801,5.66797 0.003,1.85146 2.06901701,5.08099 3.66015701,5.7207 0.72235,0.29041 7.8984852,0.5433 15.9472652,0.5625 13.43357,0.032 14.785593,-0.0568 16.476563,-1.08789 3.83177,-2.33648 3.83177,-8.28656 0,-10.62304 -1.68512,-1.02752 -3.079595,-1.12496 -16.359375,-1.12696 z m 4.90625,25.82227 c -9.614554,-0.0101 -17.0198522,0.0741 -18.0449222,0.22461 -5.08842,0.74705 -7.90822101,5.36128 -5.738281,9.39062 0.93259,1.73172 2.112428,2.63888 4.417968,3.39844 0.48292,0.1591 12.8061362,0.31054 27.3847662,0.33594 28.66494,0.05 29.322192,-0.0138 31.326172,-3.07227 1.86706,-2.8495 0.789779,-7.66189 -2.082031,-9.30273 -0.99617,-0.56917 -8.42703,-0.88041 -27.99779,-1.0195 -9.265882,0.0449 0,0 -9.265882,0.0449 z m 21.142578,26.27539 c -35.11759,-0.002 -40.7947502,0.11802 -42.2812502,0.88672 -1.84985,0.95659 -3.49414101,3.56763 -3.49414101,5.55078 0,1.71824 1.50529801,4.44016 3.05468801,5.52539 1.15187,0.80681 6.094292,0.91411 42.2949222,0.91211 39.38164,-0.002 41.064249,-0.0478 42.833989,-1.12695 1.11448,-0.67958 2.11506,-1.94984 2.5332,-3.2168 0.95064,-2.88048 -0.087,-5.91269 -2.5332,-7.4043 -1.76926,-1.07882 -3.446608,-1.12495 -42.408208,-1.12695 z"
       sodipodi:nodetypes="ccssssscsssssccccsscaccsssccssccscsssccccccccccssssssccccccccsscsccccccccccccsscssssscssssssccsscssscss" />
  </g>
</svg>
