<?xml version="1.0" encoding="UTF-8" standalone="no"?>
<svg
   xmlns:dc="http://purl.org/dc/elements/1.1/"
   xmlns:cc="http://creativecommons.org/ns#"
   xmlns:rdf="http://www.w3.org/1999/02/22-rdf-syntax-ns#"
   xmlns:svg="http://www.w3.org/2000/svg"
   xmlns="http://www.w3.org/2000/svg"
   xmlns:sodipodi="http://sodipodi.sourceforge.net/DTD/sodipodi-0.dtd"
   xmlns:inkscape="http://www.inkscape.org/namespaces/inkscape"
   version="1.1"
   id="svg908"
   width="1177.5004"
   height="1319.6068"
   viewBox="0 0 1177.5004 1319.6068"
   sodipodi:docname="stamina.svg"
   inkscape:version="1.0.2 (e86c870879, 2021-01-15)">
  <metadata
     id="metadata914">
    <rdf:RDF>
      <cc:Work
         rdf:about="">
        <dc:format>image/svg+xml</dc:format>
        <dc:type
           rdf:resource="http://purl.org/dc/dcmitype/StillImage" />
        <dc:title></dc:title>
      </cc:Work>
    </rdf:RDF>
  </metadata>
  <defs
     id="defs912" />
  <sodipodi:namedview
     pagecolor="#ffffff"
     bordercolor="#666666"
     borderopacity="1"
     objecttolerance="10"
     gridtolerance="10"
     guidetolerance="10"
     inkscape:pageopacity="0"
     inkscape:pageshadow="2"
     inkscape:window-width="1920"
     inkscape:window-height="1050"
     id="namedview910"
     showgrid="false"
     inkscape:document-rotation="0"
     inkscape:zoom="0.066640625"
     inkscape:cx="-364.77429"
     inkscape:cy="2763.7491"
     inkscape:window-x="0"
     inkscape:window-y="30"
     inkscape:window-maximized="1"
     inkscape:current-layer="g916" />
  <g
     inkscape:groupmode="layer"
     inkscape:label="Image"
     id="g916"
     transform="translate(-208.27309,-151.36478)">
    <path
       style="fill:#ffc148;fill-opacity:1;stroke:#001147;stroke-width:103.6;stroke-miterlimit:4;stroke-dasharray:none;stroke-opacity:1"
       d="m 301.79122,1319.1106 c -5.91943,-1.0972 -12.50975,-3.0489 -17.44036,-5.1648 -6.25198,-2.683 -12.69564,-6.7682 -16.46074,-10.436 -4.63525,-4.5152 -7.31811,-9.6537 -7.65198,-14.6555 -0.17311,-2.5925 3.39339,-33.0536 4.16691,-35.5913 3.91074,-12.8271 23.65541,-20.9959 47.76491,-19.7616 1.80835,0.093 10.16554,0.9825 19.96814,2.1263 10.185,1.1884 16.86634,1.8975 16.87867,1.7918 0.0113,-0.096 0.0377,-2.1763 0.0588,-4.6222 0.12383,-14.3743 8.00049,-81.8537 12.37731,-105.9923 15.35355,-84.7014 48.97405,-163.9982 97.22659,-229.31722 29.98746,-40.59377 65.28427,-75.36314 103.90764,-102.3551 l 5.33998,-3.73182 -1.20899,-1.29218 c -6.08979,-6.50892 -22.93624,-27.12485 -28.83163,-35.28256 -9.05638,-12.53162 -15.62572,-22.50221 -23.10948,-35.0746 -49.06247,-82.42287 -74.00151,-183.01725 -71.18812,-287.1452 0.48345,-17.89128 1.62303,-33.37955 3.87802,-52.70572 2.25167,-19.29775 9.46654,-75.32688 12.1779,-85.0063 0.59945,-2.14001 1.11748,-4.12748 1.15121,-4.4166 l 0.0613,-0.52568 -15.9713,-1.86655 c -11.89983,-1.3905 -16.82062,-2.03221 -19.30302,-2.5148 -16.76783,-3.2595 -30.81437,-10.75869 -37.10482,-19.80955 -1.573,-2.2632 -2.9115,-5.3507 -3.29902,-7.60954 -0.43693,-2.54735 3.33284,-35.14053 4.32692,-37.41139 4.15749,-9.49551 17.58309,-16.02415 35.64644,-17.33427 2.12,-0.15375 5.65001,-0.25662 7.84455,-0.22859 l 3.9902,0.0508 427.49977,49.88088 427.49988,49.88089 3.7852,0.84536 c 10.451,2.33411 22.2038,7.30755 28.983,12.95258 4.727,3.93613 7.7318,8.16502 9.1537,12.88276 0.4754,1.5777 0.4387,2.07153 -1.4129,18.95818 -1.3976,12.74623 -2.052,17.75898 -2.4707,18.9267 -1.3351,3.72182 -4.8328,7.66465 -9.312,10.49724 -7.2235,4.56799 -18.42,7.40561 -30.592,7.75321 -5.5553,0.15863 -8.3472,-0.0759 -27.6119,-2.31997 l -18.2268,-2.12369 0.094,0.8844 c 0.2909,2.72974 -4.1261,51.50013 -4.8946,63.32617 -0.6623,10.18964 -4.4561,42.69871 -6.1378,52.60313 -3.2577,19.17447 -6.6701,35.51928 -10.7357,51.4223 -13.8952,54.35284 -35.302,105.63948 -63.2865,151.62168 -4.1723,6.8558 -14.9899,23.31464 -19.4881,29.65107 -22.8001,32.11754 -48.6725,60.60396 -77.6145,85.45641 -9.1269,7.83717 -27.7484,22.06075 -36.3009,27.72746 l -1.0149,0.67245 0.971,1.08438 c 22.1344,24.7188 39.3161,48.30299 55.1042,75.63819 21.4149,37.07711 38.3347,78.30604 49.7134,121.13779 14.8153,55.7676 20.8269,113.2398 18.0812,172.8603 -0.6563,14.2486 -1.3968,22.9577 -3.4588,40.6732 -2.0174,17.2896 -6.9469,61.4608 -9.3769,69.9349 l -0.7495,3.2405 16.8354,2.054 c 13.5811,1.6571 17.3082,2.1669 19.2811,2.639 11.5819,2.7707 19.7171,6.3532 26.8753,11.8353 6.436,4.9289 9.2691,9.4647 11.195,15.1131 l 0.496,2.0144 -2.1534,18.4556 -2.1535,18.4556 -0.9431,1.8393 c -2.5679,5.0081 -7.0379,8.8652 -14.3684,12.1296 -8.3089,3.7001 -17.2392,5.3374 -29.1212,5.3391 -2.3713,3e-4 -40.4751,-4.4158 -429.78776,-49.8111 -234.95215,-27.3963 -428.25002,-50.0087 -429.55083,-50.2499 z"
       id="path1485"
       sodipodi:nodetypes="cssscsssscsscssssssscccsccsccccsssscssccsscssssscsssscscscsscccsssscc" />
    <path
       style="fill:#61ff34;fill-opacity:1;stroke:#000000;stroke-width:1px;stroke-linecap:butt;stroke-linejoin:miter;stroke-opacity:1"
       d="m 497.43806,260.2814 -25.48417,266.76893 110.14791,213.04271 49.77987,57.7384 -129.68478,91.60215 -67.3792,161.11231 -58.26484,239.9238 708.71855,79.0749 26.2977,-211.3172 -50.9042,-202.31866 -90.92164,-124.4672 185.85954,-153.10362 49.8144,-203.41019 -0.044,-139.17306 -293.52266,-42.69731"
       id="path1483" />
    <path
       style="fill:#e0ffd6;fill-opacity:0.877597;stroke:none;stroke-width:0.999996px;stroke-linecap:butt;stroke-linejoin:miter;stroke-opacity:1"
       d="m 907.92581,696.5995 c 79.22793,-98.48559 146.25729,-206.81725 62.13311,-269.61527 200.26938,1.16457 32.92778,233.42962 -62.13311,269.61527 z"
       id="path1513"
       sodipodi:nodetypes="ccc" />
    <path
       style="fill:#e0ffd6;fill-opacity:0.876319;stroke:none;stroke-width:1px;stroke-linecap:butt;stroke-linejoin:miter;stroke-opacity:1"
       d="M 745.33521,739.26148 C 631.58055,650.20579 586.41612,571.01974 600.13674,424.70243 c 1.55943,-13.36494 12.61096,-75.26482 12.61096,-75.26482 l 83.3156,8.23955 c -18.30702,110.51504 -15.37966,188.10647 5.17941,251.16321 20.55907,63.05673 44.0925,130.42111 44.0925,130.42111 z"
       id="path859"
       sodipodi:nodetypes="cccczc" />
    <path
       style="fill:#e0ffd6;fill-opacity:0.877597;stroke:none;stroke-width:0.999996px;stroke-linecap:butt;stroke-linejoin:miter;stroke-opacity:1"
       d="m 839.33688,889.69915 c 67.49102,55.04656 97.50613,93.54669 114.42067,137.34495 21.34691,63.1523 9.70438,125.1344 -1.67286,188.354 l -68.26509,-5.1552 c 12.86903,-90.6911 12.03911,-163.6062 -5.96378,-214.76366 -18.00286,-51.15757 -38.51894,-105.78009 -38.51894,-105.78009 z"
       id="path861"
       sodipodi:nodetypes="cccczc" />
    <path
       style="fill:#e0ffd6;fill-opacity:0.877597;stroke:none;stroke-width:0.999996px;stroke-linecap:butt;stroke-linejoin:miter;stroke-opacity:1"
       d="M 701.44783,896.80033 C 668.46281,973.61538 608.45102,942.62308 577.58658,1120.3313 500.23338,992.97595 668.27371,920.80836 701.44783,896.80033 Z"
       id="path863"
       sodipodi:nodetypes="ccc" />
    <rect
       style="fill:#ffffff;fill-opacity:1;stroke:none;stroke-width:103.6;stroke-miterlimit:4;stroke-dasharray:none;stroke-opacity:1"
       id="rect1503"
       width="723.45587"
       height="119.62467"
       x="524.25122"
       y="166.94714"
       ry="28.992399"
       transform="rotate(6.6552058)" />
    <rect
       style="fill:#ffffff;fill-opacity:1;stroke:none;stroke-width:103.6;stroke-miterlimit:4;stroke-dasharray:none;stroke-opacity:1"
       id="rect1493"
       width="723.45587"
       height="119.62467"
       x="524.16821"
       y="1091.6343"
       ry="28.992399"
       transform="rotate(6.6552058)" />
    <path
       style="fill:none;fill-opacity:1;stroke:#ffffff;stroke-width:78.3;stroke-miterlimit:4;stroke-dasharray:none;stroke-opacity:1"
       d="m 1056.8862,1319.7621 c 2.2991,-9.0352 8.834,-60.7737 10.202,-72.446 1.9989,-17.1309 2.6297,-24.7319 3.1847,-38.2889 3.1084,-75.917 -10.2887,-148.5716 -39.2115,-212.65015 -20.6146,-45.67208 -48.98138,-85.58099 -83.22414,-117.08716 -6.09086,-5.60407 -8.91382,-7.9688 -35.80525,-29.99304 -13.34338,-10.92831 -24.42183,-20.06601 -24.61864,-20.30596 -0.28524,-0.34765 5.31931,-3.20354 27.57421,-14.05083 37.50513,-18.28051 42.75929,-21.02914 55.84852,-29.21705 10.88802,-6.81092 18.52932,-12.2332 30.0612,-21.33131 11.0151,-8.69032 16.0796,-13.00364 23.6226,-20.11868 28.044,-26.45278 52.5849,-57.69502 72.7916,-92.66831 16.8543,-29.75103 56.842,-83.39243 79.5139,-277.69947 -67.7359,-7.61469 -206.13216,-24.29282 -324.23245,-38.24531 -260.97952,-30.83239 -292.94001,-34.66158 -312.9394,-36.26801 -3.68911,16.53883 -8.37573,52.33651 -10.30067,62.83974 -1.81087,9.93119 -5.91184,46.00662 -6.45162,56.75473 -2.54673,50.70631 1.20006,95.50977 11.75092,140.5166 19.39553,82.73548 59.71391,153.16607 115.85213,202.37705 2.42306,2.12409 15.86843,13.24569 29.87857,24.71467 18.96685,15.52664 25.36584,20.9301 25.05349,21.15577 -0.23068,0.16668 -12.87004,6.36629 -28.08743,13.7769 -15.21741,7.41058 -29.51759,14.41545 -31.77821,15.56637 -34.47249,17.55049 -67.74361,43.09982 -96.02063,73.73535 -49.15473,53.2546 -85.33631,122.5926 -104.19082,199.6703 -2.74891,11.2377 -4.87233,21.3505 -7.36231,35.063 -2.95166,23.7869 -11.68886,85.8972 -10.52247,100.2825 l 0.0891,0.9171 314.63538,36.7118 314.63552,36.7118 0.049,-0.4237 z"
       id="path1487"
       sodipodi:nodetypes="cccssssssscccccccssssssssccccccc" />
    <path
       style="fill:#ffc148;fill-opacity:1;stroke-width:1"
       d="m 301.79122,1319.1106 c -5.91943,-1.0972 -12.50975,-3.0489 -17.44036,-5.1648 -6.25198,-2.683 -12.69564,-6.7682 -16.46074,-10.436 -4.63525,-4.5152 -7.31811,-9.6537 -7.65198,-14.6555 -0.17311,-2.5925 3.39339,-33.0536 4.16691,-35.5913 3.91074,-12.8271 23.65541,-20.9959 47.76491,-19.7616 1.80835,0.093 10.16554,0.9825 19.96814,2.1263 10.185,1.1884 16.86634,1.8975 16.87867,1.7918 0.0113,-0.096 0.0377,-2.1763 0.0588,-4.6222 0.12383,-14.3743 8.00049,-81.8537 12.37731,-105.9923 15.35355,-84.7014 48.97405,-163.9982 97.22659,-229.31722 29.98746,-40.59377 65.28427,-75.36314 103.90764,-102.3551 l 5.33998,-3.73182 -1.20899,-1.29218 c -6.08979,-6.50892 -22.93624,-27.12485 -28.83163,-35.28256 -9.05638,-12.53162 -15.62572,-22.50221 -23.10948,-35.0746 -49.06247,-82.42287 -74.00151,-183.01725 -71.18812,-287.1452 0.48345,-17.89128 1.62303,-33.37955 3.87802,-52.70572 2.25167,-19.29775 9.46654,-75.32688 12.1779,-85.0063 0.59945,-2.14001 1.11748,-4.12748 1.15121,-4.4166 l 0.0613,-0.52568 -15.9713,-1.86655 c -11.89983,-1.3905 -16.82062,-2.03221 -19.30302,-2.5148 -16.76783,-3.2595 -30.81437,-10.75869 -37.10482,-19.80955 -1.573,-2.2632 -2.9115,-5.3507 -3.29902,-7.60954 -0.43693,-2.54735 3.33284,-35.14053 4.32692,-37.41139 4.15749,-9.49551 17.58309,-16.02415 35.64644,-17.33427 2.12,-0.15375 5.65001,-0.25662 7.84455,-0.22859 l 3.9902,0.0508 427.49977,49.88088 427.49978,49.88088 3.7852,0.84536 c 10.451,2.33411 22.2038,7.30755 28.983,12.95258 4.727,3.93613 7.7318,8.16501 9.1537,12.88276 0.4754,1.5777 0.4387,2.07153 -1.4129,18.95818 -1.3976,12.74622 -2.052,17.75898 -2.4707,18.92669 -1.3351,3.72183 -4.8328,7.66466 -9.312,10.49725 -7.2235,4.56799 -18.42,7.40561 -30.592,7.75321 -5.5553,0.15863 -8.3472,-0.076 -27.6119,-2.31997 l -18.2268,-2.12369 0.094,0.8844 c 0.2909,2.72973 -4.1261,51.50013 -4.8946,63.32617 -0.6623,10.18964 -4.4561,42.69871 -6.1378,52.60313 -3.2577,19.17447 -6.6701,35.51928 -10.7357,51.4223 -13.8952,54.35284 -35.302,105.63948 -63.2865,151.62168 -4.1723,6.8558 -14.9899,23.31464 -19.4881,29.65106 -22.8001,32.11755 -48.6725,60.60396 -77.6145,85.45642 -9.1269,7.83717 -27.7484,22.06075 -36.3009,27.72746 l -1.0149,0.67244 0.971,1.08439 c 22.1344,24.7188 39.3161,48.30299 55.1042,75.63819 21.4149,37.07711 38.3347,78.30603 49.7134,121.1378 14.8153,55.7676 20.8269,113.2398 18.0812,172.8603 -0.6563,14.2486 -1.3968,22.9577 -3.4588,40.6732 -2.0174,17.2896 -6.9469,61.4608 -9.3769,69.9349 l -0.7495,3.2405 16.8354,2.054 c 13.5811,1.6571 17.3082,2.1669 19.2811,2.6389 11.5819,2.7708 19.7171,6.3533 26.8753,11.8354 6.436,4.9289 9.2691,9.4647 11.195,15.1131 l 0.496,2.0144 -2.1534,18.4556 -2.1535,18.4556 -0.9431,1.8393 c -2.5679,5.008 -7.0379,8.8652 -14.3684,12.1296 -8.3088,3.7001 -17.2392,5.3374 -29.1212,5.3391 -2.3713,3e-4 -40.4751,-4.4158 -429.78766,-49.8111 -234.95215,-27.3963 -428.25002,-50.0087 -429.55083,-50.2499 z m 755.09498,0.6515 c 2.2991,-9.0352 8.834,-60.7737 10.202,-72.446 1.9989,-17.1309 2.6297,-24.7319 3.1847,-38.2889 3.1084,-75.917 -10.2887,-148.5716 -39.2115,-212.65019 -20.6146,-45.67208 -48.9814,-85.58095 -83.22416,-117.08712 -6.09086,-5.60407 -8.91382,-7.9688 -35.80525,-29.99304 -13.34338,-10.92831 -24.42183,-20.06601 -24.61864,-20.30596 -0.28524,-0.34765 5.31931,-3.20354 27.57421,-14.05083 37.50514,-18.28051 42.75929,-21.02915 55.84852,-29.21705 10.88802,-6.81092 18.52932,-12.23321 30.06122,-21.33131 11.0151,-8.69032 16.0796,-13.00364 23.6226,-20.11868 28.044,-26.45278 52.5849,-57.69502 72.7916,-92.66831 16.8543,-29.75103 56.842,-83.39243 79.5139,-277.69947 -67.7359,-7.61469 -206.13213,-24.29282 -324.23247,-38.24532 -260.97943,-30.83237 -292.93995,-34.66156 -312.93938,-36.268 -3.68907,16.53884 -8.37574,52.33651 -10.30067,62.83974 -1.81087,9.93119 -5.91184,46.00662 -6.45162,56.75473 -2.54673,50.70631 1.20006,95.50977 11.75092,140.5166 19.39553,82.73548 59.71391,153.16607 115.85213,202.37705 2.42306,2.12409 15.86843,13.24569 29.87855,24.71467 18.96685,15.52664 25.36584,20.9301 25.05349,21.15577 -0.23068,0.16668 -12.87004,6.36628 -28.08743,13.7769 -15.21739,7.41058 -29.51757,14.41545 -31.77819,15.56637 -34.47249,17.55049 -67.74361,43.09982 -96.02063,73.73531 -49.15473,53.2546 -85.33631,122.59264 -104.19082,199.67034 -2.74891,11.2377 -4.87233,21.3505 -7.36231,35.063 -2.95168,23.7869 -11.68882,85.8972 -10.52247,100.2825 l 0.0891,0.9171 314.63536,36.7118 314.63554,36.7118 0.049,-0.4237 z"
       id="path1505"
       sodipodi:nodetypes="cssscsssscsscssssssscccsccsccccsssscssccsscssssscsssscscscsscccsssscccccssssssscccccccssssssssccccccc" />
  </g>
</svg>
