<?xml version="1.0" encoding="UTF-8" standalone="no"?>
<svg
   xmlns:dc="http://purl.org/dc/elements/1.1/"
   xmlns:cc="http://creativecommons.org/ns#"
   xmlns:rdf="http://www.w3.org/1999/02/22-rdf-syntax-ns#"
   xmlns:svg="http://www.w3.org/2000/svg"
   xmlns="http://www.w3.org/2000/svg"
   version="1.1"
   id="svg867"
   width="619.23981"
   height="583.67792"
   viewBox="0 0 619.23981 583.67792">
  <metadata
     id="metadata873">
    <rdf:RDF>
      <cc:Work
         rdf:about="">
        <dc:format>image/svg+xml</dc:format>
        <dc:type
           rdf:resource="http://purl.org/dc/dcmitype/StillImage" />
        <dc:title></dc:title>
      </cc:Work>
    </rdf:RDF>
  </metadata>
  <defs
     id="defs871" />
  <g
     id="g875"
     transform="translate(36.736577,-43.531373)">
    <path
       style="fill:#f48daf;fill-opacity:1;stroke-width:1"
       d="M 25.24409,351.40627 C 15.60328,309.2887 11.32369,267.39525 12.28735,224.57126 c 0.19252,-8.55466 0.38526,-17.35295 0.42835,-19.55178 0.0707,-3.60982 -2.2748,-7.8583 -24.16482,-43.77045 -13.33373,-21.87493 -24.68336,-40.52427 -25.2214,-41.44299 -0.92817,-1.58487 6.14922,-3.58019 138.23522,-38.97253 l 139.21348,-37.302137 8.60884,32.202466 c 10.77035,40.287801 12.43457,52.951681 10.16551,77.352721 -1.54768,16.64356 -5.82215,33.3794 -12.97287,50.79283 l -1.58555,3.8611 7.84386,5.50493 c 18.73237,13.14671 33.79318,30.53055 44.56038,51.43366 5.3515,10.38927 13.9541,41.26477 14.7447,52.92033 1.3009,19.17757 -1.946,41.8597 -8.4563,59.07429 -1.6468,4.35463 -3.2027,8.62275 -3.4574,9.48469 -0.3777,1.27803 5.9153,-0.1419 34.1038,-7.69497 l 34.5669,-9.26219 -12.1432,-45.31897 -12.1432,-45.31898 21.4342,-27.34714 c 11.7888,-15.04093 22.0368,-27.78489 22.7734,-28.31989 0.7365,-0.535 22.4381,-3.51952 48.2257,-6.63225 l 46.8865,-5.65953 48.8351,59.3598 c 26.8592,32.64789 49.2304,60.04159 49.7138,60.87489 0.5721,0.98639 -10.5964,22.83681 -32.0072,62.61939 l -32.8859,61.10432 -8.0422,5.91111 c -112.6064,82.76703 -195.3138,125.27393 -308.87053,158.74184 l -27.12195,7.9935 -30.71069,-41.3216 C 109.83225,541.47016 97.81028,524.28198 86.66208,505.56287 65.7915,470.51873 48.00456,430.70588 37.31346,395.10481 c -2.95417,-9.83727 -5.86013,-19.24574 -6.45771,-20.9077 -0.59756,-1.66198 -3.12277,-11.91786 -5.61166,-22.79084 z"
       id="path879" />
    <path
       style="fill:#ffffff;fill-opacity:1;stroke:none;stroke-width:1px;stroke-linecap:butt;stroke-linejoin:miter;stroke-opacity:1"
       d="m 173.21635,219.01053 c 34.09588,0.76594 44.90712,5.7564 68.74967,26.64944 19.69631,17.25973 41.71785,41.63033 39.82884,74.16541 -1.889,32.53508 1.45364,35.12031 -15.60024,63.24887 13.67547,-106.08559 -29.92667,-132.92349 -92.97827,-164.06372 z"
       id="path887" />
    <path
       style="fill:#ffffff;fill-opacity:1;stroke:none;stroke-width:1px;stroke-linecap:butt;stroke-linejoin:miter;stroke-opacity:1"
       d="m 173.21635,219.01053 c 34.09588,0.76594 44.90712,5.7564 68.74967,26.64944 19.69631,17.25973 41.71785,41.63033 39.82884,74.16541 -1.889,32.53508 1.45364,35.12031 -15.60024,63.24887 13.67547,-106.08559 -29.92667,-132.92349 -92.97827,-164.06372 z"
       id="path900" />
    <path
       style="fill:#ffffff;fill-opacity:1;stroke:none;stroke-width:1px;stroke-linecap:butt;stroke-linejoin:miter;stroke-opacity:1"
       d="m 450.6977,227.39024 c 27.21595,0.18275 29.60241,4.03557 53.44496,24.92861 19.69631,17.25973 47.66362,31.46649 45.77461,64.00157 -1.889,32.53508 8.19214,6.19782 -8.86174,34.32638 -22.70979,-46.72392 -56.64872,-67.46987 -90.35783,-123.25656 z"
       id="path904" />
    <path
       style="fill:#ffffff;fill-opacity:1;stroke:none;stroke-width:1px;stroke-linecap:butt;stroke-linejoin:miter;stroke-opacity:1"
       d="m 390.52764,236.40193 c 18.47742,13.33407 28.26936,34.09649 39.27034,51.70953 11.00097,17.61304 20.9429,32.65918 35.18412,35.72568 -9.76336,9.94626 -15.42528,17.0721 -38.72722,33.38238 -9.82191,-19.60016 -27.4838,-89.28728 -35.72724,-120.81759 z"
       id="path902" />
    <path
       style="fill:#ffffff;fill-opacity:1;stroke:none;stroke-width:1px;stroke-linecap:butt;stroke-linejoin:miter;stroke-opacity:1"
       d="m 243.8381,448.60451 c 7.22053,-26.24129 11.55973,-27.54925 37.91177,-45.17187 21.7694,-14.55803 42.73054,-37.89539 73.66811,-27.65005 30.93756,10.24533 29.89912,-7.70195 52.65536,16.05104 -30.39683,15.98662 -101.62487,38.64904 -164.23524,56.77088 z"
       id="path885" />
    <path
       style="fill:#ffffff;fill-opacity:1;stroke:none;stroke-width:1px;stroke-linecap:butt;stroke-linejoin:miter;stroke-opacity:1"
       d="m 150.53623,81.579669 c 34.09588,0.76594 40.353,-33.068063 64.19555,-12.175023 19.69631,17.25973 17.90347,31.185964 16.01446,63.721044 -1.889,32.53508 1.45364,35.12031 -15.60024,63.24887 11.49046,-82.44442 -1.46736,-118.943852 -64.60977,-114.794891 z"
       id="path883" />
    <path
       style="fill:#001147;fill-opacity:1;stroke-width:1"
       d="M 25.244067,351.40627 C 15.603258,309.2887 11.323669,267.39525 12.287331,224.57126 c 0.192512,-8.55466 0.38526,-17.35295 0.428342,-19.55178 0.07071,-3.60982 -2.274801,-7.8583 -24.164815,-43.77045 -13.333731,-21.87493 -24.683366,-40.52427 -25.221398,-41.44299 -0.928177,-1.58487 6.149212,-3.58019 138.23522,-38.97253 L 240.77816,43.531373 249.387,75.733839 c 10.77035,40.287801 12.43457,52.951681 10.16551,77.352721 -1.54768,16.64356 -5.82215,33.3794 -12.97287,50.79283 l -1.58555,3.8611 7.84386,5.50493 c 18.73237,13.14671 33.79317,30.53055 44.56035,51.43366 5.3515,10.38927 13.95408,41.26477 14.74472,52.92033 1.30089,19.17757 -1.94597,41.8597 -8.45628,59.07429 -1.64685,4.35463 -3.20271,8.62275 -3.45745,9.48469 -0.37769,1.27803 5.91534,-0.1419 34.10379,-7.69497 l 34.56695,-9.26219 -12.14319,-45.31897 -12.14319,-45.31898 21.43419,-27.34714 c 11.7888,-15.04093 22.03681,-27.78489 22.77334,-28.31989 0.73653,-0.535 22.43811,-3.51952 48.22572,-6.63225 l 46.88655,-5.65953 48.83503,59.3598 c 26.85925,32.64789 49.23047,60.04159 49.71382,60.87489 0.57216,0.98639 -10.59642,22.83681 -32.00716,62.61939 l -32.88596,61.10432 -8.0422,5.91111 C 396.94065,543.24101 314.23321,585.74791 200.6765,619.21582 l -27.12195,7.9935 -30.71069,-41.3216 C 109.83223,541.47016 97.810252,524.28198 86.662057,505.56287 65.791473,470.51873 48.004539,430.70588 37.313435,395.10481 c -2.954173,-9.83727 -5.860133,-19.24574 -6.457704,-20.9077 -0.59756,-1.66198 -3.122775,-11.91786 -5.611664,-22.79084 z m 42.171339,34.2521 c 15.024775,45.75927 33.144544,83.66844 58.604944,122.61001 5.99005,9.16177 32.10736,45.01196 51.49217,70.68124 l 8.32307,11.02138 17.35271,-4.97748 c 92.76715,-26.60954 180.2211,-71.8312 279.88347,-144.72526 l 9.82891,-7.18895 26.05805,-48.45817 c 14.33193,-26.65198 25.96992,-48.7871 25.86219,-49.18915 -0.18311,-0.68335 -73.17728,-89.8392 -74.16559,-90.58663 -0.37001,-0.27979 -32.27896,3.17798 -34.95108,3.78746 -0.42928,0.0979 1.88813,10.13755 5.14981,22.3103 l 5.93032,22.13226 3.00506,-0.1185 c 6.93889,-0.27363 14.78661,-0.31775 15.18903,-0.0854 0.49435,0.28541 1.41621,30.15497 0.95531,30.95325 -0.16621,0.28789 -10.02742,0.83694 -21.91379,1.22012 l -21.61158,0.69669 -9.33519,-34.8394 c -5.13435,-19.16167 -9.68121,-34.73988 -10.10415,-34.61825 -0.42267,0.12257 -5.75648,6.64431 -11.85232,14.49484 l -11.08336,14.27369 14.01997,53.3906 14.01996,53.39061 -69.04794,18.50133 -69.04795,18.50135 -6.43872,5.74678 c -6.42749,5.73675 -18.9704,14.66726 -19.87039,14.14765 -0.34572,-0.1996 -16.16601,-26.13202 -16.34142,-26.78666 -0.0142,-0.0529 1.78796,-1.2092 4.00472,-2.56966 23.86326,-14.64516 44.10253,-46.52577 47.97986,-75.57725 2.3174,-17.36344 1.79137,-23.64516 -3.68617,-44.02022 -4.37855,-17.40603 -9.19311,-27.49614 -20.12471,-40.94419 -18.20885,-22.17525 -48.67912,-37.9974 -75.80005,-39.36032 -3.38608,-0.17016 -6.2864,-0.36418 -6.44516,-0.43118 -0.41021,-0.17309 0.14518,-30.6499 0.572,-31.38919 0.95217,-1.64922 25.88701,1.69149 35.88311,4.80753 2.80336,0.87388 5.51921,1.47575 6.03523,1.33749 1.32821,-0.35589 8.13288,-20.15289 9.96212,-28.98305 2.14197,-10.33978 3.08196,-28.46999 2.0642,-39.81349 -0.53158,-5.9246 -2.53008,-15.81249 -5.2403,-25.927163 L 218.15074,82.7232 115.11865,110.33056 c -56.667636,15.18405 -102.969092,27.84242 -102.892115,28.12971 0.07698,0.28729 7.610702,12.80391 16.741626,27.81471 l 16.601654,27.29237 -0.661478,11.77233 c -3.507596,62.42485 4.278021,124.80051 22.507069,180.31869 z"
       id="path881" />
  </g>
</svg>
