<?xml version="1.0" encoding="UTF-8" standalone="no"?>
<svg
   xmlns:dc="http://purl.org/dc/elements/1.1/"
   xmlns:cc="http://creativecommons.org/ns#"
   xmlns:rdf="http://www.w3.org/1999/02/22-rdf-syntax-ns#"
   xmlns:svg="http://www.w3.org/2000/svg"
   xmlns="http://www.w3.org/2000/svg"
   version="1.1"
   id="svg885"
   width="20.503275"
   height="28.985086"
   viewBox="0 0 20.503275 28.985087">
  <metadata
     id="metadata891">
    <rdf:RDF>
      <cc:Work
         rdf:about="">
        <dc:format>image/svg+xml</dc:format>
        <dc:type
           rdf:resource="http://purl.org/dc/dcmitype/StillImage" />
        <dc:title></dc:title>
      </cc:Work>
    </rdf:RDF>
  </metadata>
  <defs
     id="defs889" />
  <g
     id="g893"
     transform="translate(-3.7082093,0.88655645)">
    <path
       style="fill:#026bd8;fill-opacity:1;stroke:#001147;stroke-width:1.3;stroke-miterlimit:4;stroke-dasharray:none;stroke-opacity:1"
       d="m 13.959846,-0.23655647 c -0.04744,0 -1.026564,1.81498037 -1.779295,3.21289067 -3.2820736,6.0951827 -6.7200636,9.4235938 -7.5078136,12.5312498 -0.247498,0.97636 -0.317353,1.511665 -0.314453,2.402344 0.0085,2.585927 0.977228,4.912775 2.80664,6.742188 1.43686,1.436858 3.1827276,2.3325 5.2246106,2.683594 0.752121,0.129328 2.241783,0.141346 2.999999,0.02344 2.080236,-0.323494 3.899369,-1.241167 5.365234,-2.707031 1.829412,-1.829413 2.798141,-4.156261 2.806641,-6.742188 0.0029,-0.890679 -0.06696,-1.425984 -0.314453,-2.402344 -0.78775,-3.107659 -3.289533,-4.727959 -7.369141,-12.5312528 -0.735591,-1.4070058 -1.870529,-3.21289067 -1.917969,-3.21289067 z"
       id="path897" />
    <path
       style="fill:#f8f8f8;fill-opacity:1;stroke-width:0.999998"
       d="m 20.952568,17.567022 c 0.484415,1.059023 0.14972,2.81028 -0.11975,3.616043 -0.26947,0.805764 -2.231668,3.140909 -3.049865,3.163505 1.831481,-2.654409 2.460833,-4.126748 3.169567,-6.779548 z"
       id="path911" />
    <path
       style="fill:#f8f8f8;fill-opacity:1;stroke-width:0.999998"
       d="M 12.757812,5.328125 C 12.572267,6.2378984 12.404437,6.8425374 11.662109,9.2832031 10.210446,14.056066 9.3846284,15.93314 9.2246094,18.060547 c -0.073941,0.983033 -0.020435,1.794396 0.1953125,2.964844 0.158399,0.859332 0.6098021,2.68938 0.8007811,3.24414 0.07436,0.216027 0.129947,0.392578 0.123047,0.392578 -0.0069,0 -0.218675,-0.125458 -0.4707031,-0.279297 C 8.3370139,23.445209 7.2920645,22.108738 6.7421875,20.378906 6.4673365,19.514251 6.3860627,18.94788 6.3867188,17.917969 6.5138469,15.486437 8.112203,14.047299 9.6940478,11.037867 11.275894,8.0284352 11.651317,7.626132 12.757812,5.328125 Z"
       id="path909" />
  </g>
</svg>
